<?xml version="1.0" encoding="utf-8"?>
<!DOCTYPE svg PUBLIC "-//W3C//DTD SVG 1.1//EN" "http://www.w3.org/Graphics/SVG/1.1/DTD/svg11.dtd">
<svg version="1.1" id="Layer_1" xmlns="http://www.w3.org/2000/svg" xmlns:xlink="http://www.w3.org/1999/xlink" x="0px" y="0px"
width="1147px" height="1147px" viewBox="0 0 1147 1147" enable-background="new 0 0 1147 1147" xml:space="preserve">
<rect x="0" y="0" width="1147" height="1147" fill="rgb(255,255,255)" /><g transform="translate(62,62)"><g transform="translate(279,0) scale(2.2142857142857,2.2142857142857)"><g transform="" style="fill: rgb(32, 31, 31);">
    <path d="M14,14H0c0,0,4.38-9.15,0.55-14C0.55,0,14-0.24,14,14z"/>
</g></g><g transform="translate(341,0) scale(0.062,0.062)"><g transform="" style="fill: rgb(32, 31, 31);">
<path d="M250,0c138.077,0,250,111.93,250,250c0,138.077-111.923,250-250,250C111.93,500,0,388.077,0,250C0,111.93,111.93,0,250,0z"
	/>
</g></g><g transform="translate(527,0) scale(2.2142857142857,2.2142857142857)"><g transform="" style="fill: rgb(32, 31, 31);">
    <path d="M13.999,0v14c0,0-9.151-4.381-14-0.551C-0.001,13.449-0.242,0,13.999,0z"/>
</g></g><g transform="translate(558,0) scale(0.31,0.31)"><g transform="" style="fill: rgb(32, 31, 31);">
<rect width="100" height="100"/>
</g></g><g transform="translate(589,0) scale(2.2142857142857,2.2142857142857)"><g transform="" style="fill: rgb(32, 31, 31);">
    <path d="M0,14V0c0,0,9.15,4.38,14,0.55C14,0.55,14.24,14,0,14z"/>
</g></g><g transform="translate(651,0) scale(2.2142857142857,2.2142857142857)"><g transform="" style="fill: rgb(32, 31, 31);">
    <path d="M13.999-0.001v14H0.029H0v-3.431C0,4.729,6.267-0.001,13.999-0.001z"/>
</g></g><g transform="translate(682,0) scale(2.2142857142857,2.2142857142857)"><g transform="" style="fill: rgb(32, 31, 31);">
    <path d="M0,14V0c0,0,9.15,4.38,14,0.55C14,0.55,14.24,14,0,14z"/>
</g></g><g transform="translate(744,0) scale(2.2142857142857,2.2142857142857)"><g transform="" style="fill: rgb(32, 31, 31);">
    <path d="M14,14H0c0,0,4.38-9.15,0.55-14C0.55,0,14-0.24,14,14z"/>
</g></g><g transform="translate(279,31) scale(0.31,0.31)"><g transform="" style="fill: rgb(32, 31, 31);">
<rect width="100" height="100"/>
</g></g><g transform="translate(310,31) scale(2.2142857142857,2.2142857142857)"><g transform="" style="fill: rgb(32, 31, 31);">
    <path d="M13.999,13.999H0V0.028v-0.029h3.43C9.269-0.001,13.999,6.267,13.999,13.999z"/>
</g></g><g transform="translate(403,31) scale(2.2142857142857,2.2142857142857)"><g transform="" style="fill: rgb(32, 31, 31);">
    <path d="M13.999,0v14c0,0-9.151-4.381-14-0.551C-0.001,13.449-0.242,0,13.999,0z"/>
</g></g><g transform="translate(434,31) scale(0.31,0.31)"><g transform="" style="fill: rgb(32, 31, 31);">
<rect width="100" height="100"/>
</g></g><g transform="translate(465,31) scale(2.2142857142857,2.2142857142857)"><g transform="" style="fill: rgb(32, 31, 31);">
    <path d="M13.999,13.999H0V0.028v-0.029h3.43C9.269-0.001,13.999,6.267,13.999,13.999z"/>
</g></g><g transform="translate(620,31) scale(2.2142857142857,2.2142857142857)"><g transform="" style="fill: rgb(32, 31, 31);">
    <path d="M13.999,0v14c0,0-9.151-4.381-14-0.551C-0.001,13.449-0.242,0,13.999,0z"/>
</g></g><g transform="translate(651,31) scale(0.31,0.31)"><g transform="" style="fill: rgb(32, 31, 31);">
<rect width="100" height="100"/>
</g></g><g transform="translate(744,31) scale(0.31,0.31)"><g transform="" style="fill: rgb(32, 31, 31);">
<rect width="100" height="100"/>
</g></g><g transform="translate(248,62) scale(2.2142857142857,2.2142857142857)"><g transform="" style="fill: rgb(32, 31, 31);">
    <path d="M13.999-0.001v14H0.029H0v-3.431C0,4.729,6.267-0.001,13.999-0.001z"/>
</g></g><g transform="translate(279,62) scale(0.31,0.31)"><g transform="" style="fill: rgb(32, 31, 31);">
<rect width="100" height="100"/>
</g></g><g transform="translate(310,62) scale(0.31,0.31)"><g transform="" style="fill: rgb(32, 31, 31);">
<rect width="100" height="100"/>
</g></g><g transform="translate(341,62) scale(2.2142857142857,2.2142857142857)"><g transform="" style="fill: rgb(32, 31, 31);">
    <path d="M0,14V0c0,0,9.15,4.38,14,0.55C14,0.55,14.24,14,0,14z"/>
</g></g><g transform="translate(465,62) scale(2.2142857142857,2.2142857142857)"><g transform="" style="fill: rgb(32, 31, 31);">
    <path d="M-0.001,0l14,0c0,0-4.381,9.151-0.551,14C13.448,14-0.001,14.24-0.001,0z"/>
</g></g><g transform="translate(558,62) scale(2.2142857142857,2.2142857142857)"><g transform="" style="fill: rgb(32, 31, 31);">
    <path d="M13.999-0.001v14H0.029H0v-3.431C0,4.729,6.267-0.001,13.999-0.001z"/>
</g></g><g transform="translate(589,62) scale(2.2142857142857,2.2142857142857)"><g transform="" style="fill: rgb(32, 31, 31);">
    <path d="M13.999,13.999H0V0.028v-0.029h3.43C9.269-0.001,13.999,6.267,13.999,13.999z"/>
</g></g><g transform="translate(651,62) scale(0.31,0.31)"><g transform="" style="fill: rgb(32, 31, 31);">
<rect width="100" height="100"/>
</g></g><g transform="translate(713,62) scale(2.2142857142857,2.2142857142857)"><g transform="" style="fill: rgb(32, 31, 31);">
    <path d="M13.999-0.001v14H0.029H0v-3.431C0,4.729,6.267-0.001,13.999-0.001z"/>
</g></g><g transform="translate(744,62) scale(0.31,0.31)"><g transform="" style="fill: rgb(32, 31, 31);">
<rect width="100" height="100"/>
</g></g><g transform="translate(248,93) scale(2.2142857142857,2.2142857142857)"><g transform="" style="fill: rgb(32, 31, 31);">
        <path d="M0-0.001h14v13.97v0.029l-3.431,0.001C4.731,13.999,0,7.731,0-0.001z"/>
</g></g><g transform="translate(279,93) scale(2.2142857142857,2.2142857142857)"><g transform="" style="fill: rgb(32, 31, 31);">
    <path d="M0,14V0h13.971H14v3.43C14,9.27,7.732,14,0,14z"/>
</g></g><g transform="translate(403,93) scale(2.2142857142857,2.2142857142857)"><g transform="" style="fill: rgb(32, 31, 31);">
    <path d="M13.999-0.001v14H0.029H0v-3.431C0,4.729,6.267-0.001,13.999-0.001z"/>
</g></g><g transform="translate(434,93) scale(2.2142857142857,2.2142857142857)"><g transform="" style="fill: rgb(32, 31, 31);">
    <path d="M13.999,13.999H0V0.028v-0.029h3.43C9.269-0.001,13.999,6.267,13.999,13.999z"/>
</g></g><g transform="translate(496,93) scale(2.2142857142857,2.2142857142857)"><g transform="" style="fill: rgb(32, 31, 31);">
    <path d="M13.999-0.001v14H0.029H0v-3.431C0,4.729,6.267-0.001,13.999-0.001z"/>
</g></g><g transform="translate(527,93) scale(0.31,0.31)"><g transform="" style="fill: rgb(32, 31, 31);">
<rect width="100" height="100"/>
</g></g><g transform="translate(558,93) scale(0.31,0.31)"><g transform="" style="fill: rgb(32, 31, 31);">
<rect width="100" height="100"/>
</g></g><g transform="translate(589,93) scale(0.31,0.31)"><g transform="" style="fill: rgb(32, 31, 31);">
<rect width="100" height="100"/>
</g></g><g transform="translate(620,93) scale(0.31,0.31)"><g transform="" style="fill: rgb(32, 31, 31);">
<rect width="100" height="100"/>
</g></g><g transform="translate(651,93) scale(0.31,0.31)"><g transform="" style="fill: rgb(32, 31, 31);">
<rect width="100" height="100"/>
</g></g><g transform="translate(713,93) scale(0.31,0.31)"><g transform="" style="fill: rgb(32, 31, 31);">
<rect width="100" height="100"/>
</g></g><g transform="translate(744,93) scale(2.2142857142857,2.2142857142857)"><g transform="" style="fill: rgb(32, 31, 31);">
    <path d="M0,14V0h13.971H14v3.43C14,9.27,7.732,14,0,14z"/>
</g></g><g transform="translate(372,124) scale(2.2142857142857,2.2142857142857)"><g transform="" style="fill: rgb(32, 31, 31);">
    <path d="M13.999,0v14c0,0-9.151-4.381-14-0.551C-0.001,13.449-0.242,0,13.999,0z"/>
</g></g><g transform="translate(403,124) scale(0.31,0.31)"><g transform="" style="fill: rgb(32, 31, 31);">
<rect width="100" height="100"/>
</g></g><g transform="translate(434,124) scale(0.31,0.31)"><g transform="" style="fill: rgb(32, 31, 31);">
<rect width="100" height="100"/>
</g></g><g transform="translate(496,124) scale(0.31,0.31)"><g transform="" style="fill: rgb(32, 31, 31);">
<rect width="100" height="100"/>
</g></g><g transform="translate(558,124) scale(2.2142857142857,2.2142857142857)"><g transform="" style="fill: rgb(32, 31, 31);">
    <path d="M-0.001,0l14,0c0,0-4.381,9.151-0.551,14C13.448,14-0.001,14.24-0.001,0z"/>
</g></g><g transform="translate(620,124) scale(0.31,0.31)"><g transform="" style="fill: rgb(32, 31, 31);">
<rect width="100" height="100"/>
</g></g><g transform="translate(651,124) scale(2.2142857142857,2.2142857142857)"><g transform="" style="fill: rgb(32, 31, 31);">
    <path d="M0,14V0h13.971H14v3.43C14,9.27,7.732,14,0,14z"/>
</g></g><g transform="translate(713,124) scale(2.2142857142857,2.2142857142857)"><g transform="" style="fill: rgb(32, 31, 31);">
    <path d="M-0.001,0l14,0c0,0-4.381,9.151-0.551,14C13.448,14-0.001,14.24-0.001,0z"/>
</g></g><g transform="translate(341,155) scale(0.062,0.062)"><g transform="" style="fill: rgb(32, 31, 31);">
<path d="M250,0c138.077,0,250,111.93,250,250c0,138.077-111.923,250-250,250C111.93,500,0,388.077,0,250C0,111.93,111.93,0,250,0z"
	/>
</g></g><g transform="translate(403,155) scale(2.2142857142857,2.2142857142857)"><g transform="" style="fill: rgb(32, 31, 31);">
        <path d="M0-0.001h14v13.97v0.029l-3.431,0.001C4.731,13.999,0,7.731,0-0.001z"/>
</g></g><g transform="translate(434,155) scale(0.31,0.31)"><g transform="" style="fill: rgb(32, 31, 31);">
<rect width="100" height="100"/>
</g></g><g transform="translate(496,155) scale(0.31,0.31)"><g transform="" style="fill: rgb(32, 31, 31);">
<rect width="100" height="100"/>
</g></g><g transform="translate(620,155) scale(0.31,0.31)"><g transform="" style="fill: rgb(32, 31, 31);">
<rect width="100" height="100"/>
</g></g><g transform="translate(744,155) scale(2.2142857142857,2.2142857142857)"><g transform="" style="fill: rgb(32, 31, 31);">
    <path d="M14,14H0c0,0,4.38-9.15,0.55-14C0.55,0,14-0.24,14,14z"/>
</g></g><g transform="translate(248,186) scale(0.062,0.062)"><g transform="" style="fill: rgb(32, 31, 31);">
<path d="M250,0c138.077,0,250,111.93,250,250c0,138.077-111.923,250-250,250C111.93,500,0,388.077,0,250C0,111.93,111.93,0,250,0z"
	/>
</g></g><g transform="translate(310,186) scale(2.2142857142857,2.2142857142857)"><g transform="" style="fill: rgb(32, 31, 31);">
    <path d="M14,14H0c0,0,4.38-9.15,0.55-14C0.55,0,14-0.24,14,14z"/>
</g></g><g transform="translate(372,186) scale(0.062,0.062)"><g transform="" style="fill: rgb(32, 31, 31);">
<path d="M250,0c138.077,0,250,111.93,250,250c0,138.077-111.923,250-250,250C111.93,500,0,388.077,0,250C0,111.93,111.93,0,250,0z"
	/>
</g></g><g transform="translate(434,186) scale(2.2142857142857,2.2142857142857)"><g transform="" style="fill: rgb(32, 31, 31);">
    <path d="M-0.001,0l14,0c0,0-4.381,9.151-0.551,14C13.448,14-0.001,14.24-0.001,0z"/>
</g></g><g transform="translate(496,186) scale(0.31,0.31)"><g transform="" style="fill: rgb(32, 31, 31);">
<rect width="100" height="100"/>
</g></g><g transform="translate(558,186) scale(0.062,0.062)"><g transform="" style="fill: rgb(32, 31, 31);">
<path d="M250,0c138.077,0,250,111.93,250,250c0,138.077-111.923,250-250,250C111.93,500,0,388.077,0,250C0,111.93,111.93,0,250,0z"
	/>
</g></g><g transform="translate(620,186) scale(2.2142857142857,2.2142857142857)"><g transform="" style="fill: rgb(32, 31, 31);">
    <path d="M-0.001,0l14,0c0,0-4.381,9.151-0.551,14C13.448,14-0.001,14.24-0.001,0z"/>
</g></g><g transform="translate(682,186) scale(2.2142857142857,2.2142857142857)"><g transform="" style="fill: rgb(32, 31, 31);">
    <path d="M14,14H0c0,0,4.38-9.15,0.55-14C0.55,0,14-0.24,14,14z"/>
</g></g><g transform="translate(744,186) scale(2.2142857142857,2.2142857142857)"><g transform="" style="fill: rgb(32, 31, 31);">
    <path d="M-0.001,0l14,0c0,0-4.381,9.151-0.551,14C13.448,14-0.001,14.24-0.001,0z"/>
</g></g><g transform="translate(310,217) scale(2.2142857142857,2.2142857142857)"><g transform="" style="fill: rgb(32, 31, 31);">
    <path d="M-0.001,0l14,0c0,0-4.381,9.151-0.551,14C13.448,14-0.001,14.24-0.001,0z"/>
</g></g><g transform="translate(465,217) scale(2.2142857142857,2.2142857142857)"><g transform="" style="fill: rgb(32, 31, 31);">
    <path d="M13.999-0.001v14H0.029H0v-3.431C0,4.729,6.267-0.001,13.999-0.001z"/>
</g></g><g transform="translate(496,217) scale(0.31,0.31)"><g transform="" style="fill: rgb(32, 31, 31);">
<rect width="100" height="100"/>
</g></g><g transform="translate(682,217) scale(2.2142857142857,2.2142857142857)"><g transform="" style="fill: rgb(32, 31, 31);">
        <path d="M0-0.001h14v13.97v0.029l-3.431,0.001C4.731,13.999,0,7.731,0-0.001z"/>
</g></g><g transform="translate(713,217) scale(2.2142857142857,2.2142857142857)"><g transform="" style="fill: rgb(32, 31, 31);">
    <path d="M13.999,13.999H0V0.028v-0.029h3.43C9.269-0.001,13.999,6.267,13.999,13.999z"/>
</g></g><g transform="translate(93,248) scale(2.2142857142857,2.2142857142857)"><g transform="" style="fill: rgb(32, 31, 31);">
    <path d="M13.999,0v14c0,0-9.151-4.381-14-0.551C-0.001,13.449-0.242,0,13.999,0z"/>
</g></g><g transform="translate(124,248) scale(2.2142857142857,2.2142857142857)"><g transform="" style="fill: rgb(32, 31, 31);">
    <path d="M13.999,13.999H0V0.028v-0.029h3.43C9.269-0.001,13.999,6.267,13.999,13.999z"/>
</g></g><g transform="translate(186,248) scale(2.2142857142857,2.2142857142857)"><g transform="" style="fill: rgb(32, 31, 31);">
    <path d="M13.999,0v14c0,0-9.151-4.381-14-0.551C-0.001,13.449-0.242,0,13.999,0z"/>
</g></g><g transform="translate(217,248) scale(2.2142857142857,2.2142857142857)"><g transform="" style="fill: rgb(32, 31, 31);">
    <path d="M0,14V0c0,0,9.15,4.38,14,0.55C14,0.55,14.24,14,0,14z"/>
</g></g><g transform="translate(341,248) scale(2.2142857142857,2.2142857142857)"><g transform="" style="fill: rgb(32, 31, 31);">
    <path d="M13.999,0v14c0,0-9.151-4.381-14-0.551C-0.001,13.449-0.242,0,13.999,0z"/>
</g></g><g transform="translate(372,248) scale(0.31,0.31)"><g transform="" style="fill: rgb(32, 31, 31);">
<rect width="100" height="100"/>
</g></g><g transform="translate(403,248) scale(0.31,0.31)"><g transform="" style="fill: rgb(32, 31, 31);">
<rect width="100" height="100"/>
</g></g><g transform="translate(434,248) scale(0.31,0.31)"><g transform="" style="fill: rgb(32, 31, 31);">
<rect width="100" height="100"/>
</g></g><g transform="translate(465,248) scale(0.31,0.31)"><g transform="" style="fill: rgb(32, 31, 31);">
<rect width="100" height="100"/>
</g></g><g transform="translate(496,248) scale(0.31,0.31)"><g transform="" style="fill: rgb(32, 31, 31);">
<rect width="100" height="100"/>
</g></g><g transform="translate(558,248) scale(2.2142857142857,2.2142857142857)"><g transform="" style="fill: rgb(32, 31, 31);">
    <path d="M14,14H0c0,0,4.38-9.15,0.55-14C0.55,0,14-0.24,14,14z"/>
</g></g><g transform="translate(620,248) scale(0.062,0.062)"><g transform="" style="fill: rgb(32, 31, 31);">
<path d="M250,0c138.077,0,250,111.93,250,250c0,138.077-111.923,250-250,250C111.93,500,0,388.077,0,250C0,111.93,111.93,0,250,0z"
	/>
</g></g><g transform="translate(713,248) scale(0.31,0.31)"><g transform="" style="fill: rgb(32, 31, 31);">
<rect width="100" height="100"/>
</g></g><g transform="translate(744,248) scale(2.2142857142857,2.2142857142857)"><g transform="" style="fill: rgb(32, 31, 31);">
    <path d="M0,14V0c0,0,9.15,4.38,14,0.55C14,0.55,14.24,14,0,14z"/>
</g></g><g transform="translate(899,248) scale(2.2142857142857,2.2142857142857)"><g transform="" style="fill: rgb(32, 31, 31);">
    <path d="M13.999-0.001v14H0.029H0v-3.431C0,4.729,6.267-0.001,13.999-0.001z"/>
</g></g><g transform="translate(930,248) scale(2.2142857142857,2.2142857142857)"><g transform="" style="fill: rgb(32, 31, 31);">
    <path d="M13.999,13.999H0V0.028v-0.029h3.43C9.269-0.001,13.999,6.267,13.999,13.999z"/>
</g></g><g transform="translate(31,279) scale(0.062,0.062)"><g transform="" style="fill: rgb(32, 31, 31);">
<path d="M250,0c138.077,0,250,111.93,250,250c0,138.077-111.923,250-250,250C111.93,500,0,388.077,0,250C0,111.93,111.93,0,250,0z"
	/>
</g></g><g transform="translate(124,279) scale(0.31,0.31)"><g transform="" style="fill: rgb(32, 31, 31);">
<rect width="100" height="100"/>
</g></g><g transform="translate(155,279) scale(2.2142857142857,2.2142857142857)"><g transform="" style="fill: rgb(32, 31, 31);">
    <path d="M0,14V0c0,0,9.15,4.38,14,0.55C14,0.55,14.24,14,0,14z"/>
</g></g><g transform="translate(248,279) scale(0.062,0.062)"><g transform="" style="fill: rgb(32, 31, 31);">
<path d="M250,0c138.077,0,250,111.93,250,250c0,138.077-111.923,250-250,250C111.93,500,0,388.077,0,250C0,111.93,111.93,0,250,0z"
	/>
</g></g><g transform="translate(372,279) scale(0.31,0.31)"><g transform="" style="fill: rgb(32, 31, 31);">
<rect width="100" height="100"/>
</g></g><g transform="translate(403,279) scale(0.31,0.31)"><g transform="" style="fill: rgb(32, 31, 31);">
<rect width="100" height="100"/>
</g></g><g transform="translate(434,279) scale(2.2142857142857,2.2142857142857)"><g transform="" style="fill: rgb(32, 31, 31);">
    <path d="M0,14V0h13.971H14v3.43C14,9.27,7.732,14,0,14z"/>
</g></g><g transform="translate(496,279) scale(2.2142857142857,2.2142857142857)"><g transform="" style="fill: rgb(32, 31, 31);">
    <path d="M-0.001,0l14,0c0,0-4.381,9.151-0.551,14C13.448,14-0.001,14.24-0.001,0z"/>
</g></g><g transform="translate(558,279) scale(0.31,0.31)"><g transform="" style="fill: rgb(32, 31, 31);">
<rect width="100" height="100"/>
</g></g><g transform="translate(713,279) scale(0.31,0.31)"><g transform="" style="fill: rgb(32, 31, 31);">
<rect width="100" height="100"/>
</g></g><g transform="translate(775,279) scale(2.2142857142857,2.2142857142857)"><g transform="" style="fill: rgb(32, 31, 31);">
    <path d="M14,14H0c0,0,4.38-9.15,0.55-14C0.55,0,14-0.24,14,14z"/>
</g></g><g transform="translate(837,279) scale(2.2142857142857,2.2142857142857)"><g transform="" style="fill: rgb(32, 31, 31);">
    <path d="M13.999-0.001v14H0.029H0v-3.431C0,4.729,6.267-0.001,13.999-0.001z"/>
</g></g><g transform="translate(868,279) scale(0.31,0.31)"><g transform="" style="fill: rgb(32, 31, 31);">
<rect width="100" height="100"/>
</g></g><g transform="translate(899,279) scale(0.31,0.31)"><g transform="" style="fill: rgb(32, 31, 31);">
<rect width="100" height="100"/>
</g></g><g transform="translate(930,279) scale(0.31,0.31)"><g transform="" style="fill: rgb(32, 31, 31);">
<rect width="100" height="100"/>
</g></g><g transform="translate(961,279) scale(2.2142857142857,2.2142857142857)"><g transform="" style="fill: rgb(32, 31, 31);">
    <path d="M13.999,13.999H0V0.028v-0.029h3.43C9.269-0.001,13.999,6.267,13.999,13.999z"/>
</g></g><g transform="translate(0,310) scale(0.062,0.062)"><g transform="" style="fill: rgb(32, 31, 31);">
<path d="M250,0c138.077,0,250,111.93,250,250c0,138.077-111.923,250-250,250C111.93,500,0,388.077,0,250C0,111.93,111.93,0,250,0z"
	/>
</g></g><g transform="translate(124,310) scale(0.31,0.31)"><g transform="" style="fill: rgb(32, 31, 31);">
<rect width="100" height="100"/>
</g></g><g transform="translate(186,310) scale(0.062,0.062)"><g transform="" style="fill: rgb(32, 31, 31);">
<path d="M250,0c138.077,0,250,111.93,250,250c0,138.077-111.923,250-250,250C111.93,500,0,388.077,0,250C0,111.93,111.93,0,250,0z"
	/>
</g></g><g transform="translate(341,310) scale(2.2142857142857,2.2142857142857)"><g transform="" style="fill: rgb(32, 31, 31);">
    <path d="M13.999,0v14c0,0-9.151-4.381-14-0.551C-0.001,13.449-0.242,0,13.999,0z"/>
</g></g><g transform="translate(372,310) scale(0.31,0.31)"><g transform="" style="fill: rgb(32, 31, 31);">
<rect width="100" height="100"/>
</g></g><g transform="translate(465,310) scale(0.062,0.062)"><g transform="" style="fill: rgb(32, 31, 31);">
<path d="M250,0c138.077,0,250,111.93,250,250c0,138.077-111.923,250-250,250C111.93,500,0,388.077,0,250C0,111.93,111.93,0,250,0z"
	/>
</g></g><g transform="translate(558,310) scale(2.2142857142857,2.2142857142857)"><g transform="" style="fill: rgb(32, 31, 31);">
    <path d="M-0.001,0l14,0c0,0-4.381,9.151-0.551,14C13.448,14-0.001,14.24-0.001,0z"/>
</g></g><g transform="translate(651,310) scale(0.062,0.062)"><g transform="" style="fill: rgb(32, 31, 31);">
<path d="M250,0c138.077,0,250,111.93,250,250c0,138.077-111.923,250-250,250C111.93,500,0,388.077,0,250C0,111.93,111.93,0,250,0z"
	/>
</g></g><g transform="translate(713,310) scale(2.2142857142857,2.2142857142857)"><g transform="" style="fill: rgb(32, 31, 31);">
    <path d="M-0.001,0l14,0c0,0-4.381,9.151-0.551,14C13.448,14-0.001,14.24-0.001,0z"/>
</g></g><g transform="translate(775,310) scale(2.2142857142857,2.2142857142857)"><g transform="" style="fill: rgb(32, 31, 31);">
    <path d="M-0.001,0l14,0c0,0-4.381,9.151-0.551,14C13.448,14-0.001,14.24-0.001,0z"/>
</g></g><g transform="translate(837,310) scale(0.31,0.31)"><g transform="" style="fill: rgb(32, 31, 31);">
<rect width="100" height="100"/>
</g></g><g transform="translate(930,310) scale(0.31,0.31)"><g transform="" style="fill: rgb(32, 31, 31);">
<rect width="100" height="100"/>
</g></g><g transform="translate(961,310) scale(0.31,0.31)"><g transform="" style="fill: rgb(32, 31, 31);">
<rect width="100" height="100"/>
</g></g><g transform="translate(992,310) scale(2.2142857142857,2.2142857142857)"><g transform="" style="fill: rgb(32, 31, 31);">
    <path d="M13.999,13.999H0V0.028v-0.029h3.43C9.269-0.001,13.999,6.267,13.999,13.999z"/>
</g></g><g transform="translate(31,341) scale(2.2142857142857,2.2142857142857)"><g transform="" style="fill: rgb(32, 31, 31);">
    <path d="M13.999,0v14c0,0-9.151-4.381-14-0.551C-0.001,13.449-0.242,0,13.999,0z"/>
</g></g><g transform="translate(62,341) scale(2.2142857142857,2.2142857142857)"><g transform="" style="fill: rgb(32, 31, 31);">
    <path d="M0,14V0c0,0,9.15,4.38,14,0.55C14,0.55,14.24,14,0,14z"/>
</g></g><g transform="translate(124,341) scale(0.31,0.31)"><g transform="" style="fill: rgb(32, 31, 31);">
<rect width="100" height="100"/>
</g></g><g transform="translate(279,341) scale(2.2142857142857,2.2142857142857)"><g transform="" style="fill: rgb(32, 31, 31);">
    <path d="M13.999,0v14c0,0-9.151-4.381-14-0.551C-0.001,13.449-0.242,0,13.999,0z"/>
</g></g><g transform="translate(310,341) scale(2.2142857142857,2.2142857142857)"><g transform="" style="fill: rgb(32, 31, 31);">
    <path d="M0,14V0c0,0,9.15,4.38,14,0.55C14,0.55,14.24,14,0,14z"/>
</g></g><g transform="translate(372,341) scale(2.2142857142857,2.2142857142857)"><g transform="" style="fill: rgb(32, 31, 31);">
        <path d="M0-0.001h14v13.97v0.029l-3.431,0.001C4.731,13.999,0,7.731,0-0.001z"/>
</g></g><g transform="translate(403,341) scale(2.2142857142857,2.2142857142857)"><g transform="" style="fill: rgb(32, 31, 31);">
    <path d="M0,14V0c0,0,9.15,4.38,14,0.55C14,0.55,14.24,14,0,14z"/>
</g></g><g transform="translate(527,341) scale(0.062,0.062)"><g transform="" style="fill: rgb(32, 31, 31);">
<path d="M250,0c138.077,0,250,111.93,250,250c0,138.077-111.923,250-250,250C111.93,500,0,388.077,0,250C0,111.93,111.93,0,250,0z"
	/>
</g></g><g transform="translate(589,341) scale(2.2142857142857,2.2142857142857)"><g transform="" style="fill: rgb(32, 31, 31);">
    <path d="M14,14H0c0,0,4.38-9.15,0.55-14C0.55,0,14-0.24,14,14z"/>
</g></g><g transform="translate(744,341) scale(2.2142857142857,2.2142857142857)"><g transform="" style="fill: rgb(32, 31, 31);">
    <path d="M14,14H0c0,0,4.38-9.15,0.55-14C0.55,0,14-0.24,14,14z"/>
</g></g><g transform="translate(806,341) scale(2.2142857142857,2.2142857142857)"><g transform="" style="fill: rgb(32, 31, 31);">
    <path d="M13.999-0.001v14H0.029H0v-3.431C0,4.729,6.267-0.001,13.999-0.001z"/>
</g></g><g transform="translate(837,341) scale(0.31,0.31)"><g transform="" style="fill: rgb(32, 31, 31);">
<rect width="100" height="100"/>
</g></g><g transform="translate(868,341) scale(0.31,0.31)"><g transform="" style="fill: rgb(32, 31, 31);">
<rect width="100" height="100"/>
</g></g><g transform="translate(899,341) scale(0.31,0.31)"><g transform="" style="fill: rgb(32, 31, 31);">
<rect width="100" height="100"/>
</g></g><g transform="translate(930,341) scale(0.31,0.31)"><g transform="" style="fill: rgb(32, 31, 31);">
<rect width="100" height="100"/>
</g></g><g transform="translate(961,341) scale(0.31,0.31)"><g transform="" style="fill: rgb(32, 31, 31);">
<rect width="100" height="100"/>
</g></g><g transform="translate(992,341) scale(0.31,0.31)"><g transform="" style="fill: rgb(32, 31, 31);">
<rect width="100" height="100"/>
</g></g><g transform="translate(93,372) scale(2.2142857142857,2.2142857142857)"><g transform="" style="fill: rgb(32, 31, 31);">
    <path d="M13.999-0.001v14H0.029H0v-3.431C0,4.729,6.267-0.001,13.999-0.001z"/>
</g></g><g transform="translate(124,372) scale(2.2142857142857,2.2142857142857)"><g transform="" style="fill: rgb(32, 31, 31);">
    <path d="M0,14V0h13.971H14v3.43C14,9.27,7.732,14,0,14z"/>
</g></g><g transform="translate(186,372) scale(2.2142857142857,2.2142857142857)"><g transform="" style="fill: rgb(32, 31, 31);">
    <path d="M13.999,0v14c0,0-9.151-4.381-14-0.551C-0.001,13.449-0.242,0,13.999,0z"/>
</g></g><g transform="translate(217,372) scale(0.31,0.31)"><g transform="" style="fill: rgb(32, 31, 31);">
<rect width="100" height="100"/>
</g></g><g transform="translate(248,372) scale(2.2142857142857,2.2142857142857)"><g transform="" style="fill: rgb(32, 31, 31);">
    <path d="M0,14V0c0,0,9.15,4.38,14,0.55C14,0.55,14.24,14,0,14z"/>
</g></g><g transform="translate(434,372) scale(0.062,0.062)"><g transform="" style="fill: rgb(32, 31, 31);">
<path d="M250,0c138.077,0,250,111.93,250,250c0,138.077-111.923,250-250,250C111.93,500,0,388.077,0,250C0,111.93,111.93,0,250,0z"
	/>
</g></g><g transform="translate(496,372) scale(2.2142857142857,2.2142857142857)"><g transform="" style="fill: rgb(32, 31, 31);">
    <path d="M14,14H0c0,0,4.38-9.15,0.55-14C0.55,0,14-0.24,14,14z"/>
</g></g><g transform="translate(558,372) scale(2.2142857142857,2.2142857142857)"><g transform="" style="fill: rgb(32, 31, 31);">
    <path d="M13.999,0v14c0,0-9.151-4.381-14-0.551C-0.001,13.449-0.242,0,13.999,0z"/>
</g></g><g transform="translate(589,372) scale(0.31,0.31)"><g transform="" style="fill: rgb(32, 31, 31);">
<rect width="100" height="100"/>
</g></g><g transform="translate(620,372) scale(0.31,0.31)"><g transform="" style="fill: rgb(32, 31, 31);">
<rect width="100" height="100"/>
</g></g><g transform="translate(651,372) scale(0.31,0.31)"><g transform="" style="fill: rgb(32, 31, 31);">
<rect width="100" height="100"/>
</g></g><g transform="translate(682,372) scale(2.2142857142857,2.2142857142857)"><g transform="" style="fill: rgb(32, 31, 31);">
    <path d="M13.999,13.999H0V0.028v-0.029h3.43C9.269-0.001,13.999,6.267,13.999,13.999z"/>
</g></g><g transform="translate(744,372) scale(2.2142857142857,2.2142857142857)"><g transform="" style="fill: rgb(32, 31, 31);">
    <path d="M-0.001,0l14,0c0,0-4.381,9.151-0.551,14C13.448,14-0.001,14.24-0.001,0z"/>
</g></g><g transform="translate(806,372) scale(2.2142857142857,2.2142857142857)"><g transform="" style="fill: rgb(32, 31, 31);">
        <path d="M0-0.001h14v13.97v0.029l-3.431,0.001C4.731,13.999,0,7.731,0-0.001z"/>
</g></g><g transform="translate(837,372) scale(0.31,0.31)"><g transform="" style="fill: rgb(32, 31, 31);">
<rect width="100" height="100"/>
</g></g><g transform="translate(868,372) scale(0.31,0.31)"><g transform="" style="fill: rgb(32, 31, 31);">
<rect width="100" height="100"/>
</g></g><g transform="translate(899,372) scale(2.2142857142857,2.2142857142857)"><g transform="" style="fill: rgb(32, 31, 31);">
    <path d="M0,14V0h13.971H14v3.43C14,9.27,7.732,14,0,14z"/>
</g></g><g transform="translate(992,372) scale(2.2142857142857,2.2142857142857)"><g transform="" style="fill: rgb(32, 31, 31);">
    <path d="M-0.001,0l14,0c0,0-4.381,9.151-0.551,14C13.448,14-0.001,14.24-0.001,0z"/>
</g></g><g transform="translate(0,403) scale(2.2142857142857,2.2142857142857)"><g transform="" style="fill: rgb(32, 31, 31);">
    <path d="M13.999,0v14c0,0-9.151-4.381-14-0.551C-0.001,13.449-0.242,0,13.999,0z"/>
</g></g><g transform="translate(31,403) scale(2.2142857142857,2.2142857142857)"><g transform="" style="fill: rgb(32, 31, 31);">
    <path d="M13.999,13.999H0V0.028v-0.029h3.43C9.269-0.001,13.999,6.267,13.999,13.999z"/>
</g></g><g transform="translate(93,403) scale(0.31,0.31)"><g transform="" style="fill: rgb(32, 31, 31);">
<rect width="100" height="100"/>
</g></g><g transform="translate(341,403) scale(2.2142857142857,2.2142857142857)"><g transform="" style="fill: rgb(32, 31, 31);">
    <path d="M14,14H0c0,0,4.38-9.15,0.55-14C0.55,0,14-0.24,14,14z"/>
</g></g><g transform="translate(465,403) scale(2.2142857142857,2.2142857142857)"><g transform="" style="fill: rgb(32, 31, 31);">
    <path d="M13.999,0v14c0,0-9.151-4.381-14-0.551C-0.001,13.449-0.242,0,13.999,0z"/>
</g></g><g transform="translate(496,403) scale(0.31,0.31)"><g transform="" style="fill: rgb(32, 31, 31);">
<rect width="100" height="100"/>
</g></g><g transform="translate(527,403) scale(2.2142857142857,2.2142857142857)"><g transform="" style="fill: rgb(32, 31, 31);">
    <path d="M0,14V0c0,0,9.15,4.38,14,0.55C14,0.55,14.24,14,0,14z"/>
</g></g><g transform="translate(589,403) scale(2.2142857142857,2.2142857142857)"><g transform="" style="fill: rgb(32, 31, 31);">
    <path d="M-0.001,0l14,0c0,0-4.381,9.151-0.551,14C13.448,14-0.001,14.24-0.001,0z"/>
</g></g><g transform="translate(651,403) scale(2.2142857142857,2.2142857142857)"><g transform="" style="fill: rgb(32, 31, 31);">
        <path d="M0-0.001h14v13.97v0.029l-3.431,0.001C4.731,13.999,0,7.731,0-0.001z"/>
</g></g><g transform="translate(682,403) scale(0.31,0.31)"><g transform="" style="fill: rgb(32, 31, 31);">
<rect width="100" height="100"/>
</g></g><g transform="translate(713,403) scale(2.2142857142857,2.2142857142857)"><g transform="" style="fill: rgb(32, 31, 31);">
    <path d="M0,14V0c0,0,9.15,4.38,14,0.55C14,0.55,14.24,14,0,14z"/>
</g></g><g transform="translate(930,403) scale(2.2142857142857,2.2142857142857)"><g transform="" style="fill: rgb(32, 31, 31);">
    <path d="M13.999,0v14c0,0-9.151-4.381-14-0.551C-0.001,13.449-0.242,0,13.999,0z"/>
</g></g><g transform="translate(961,403) scale(2.2142857142857,2.2142857142857)"><g transform="" style="fill: rgb(32, 31, 31);">
    <path d="M0,14V0c0,0,9.15,4.38,14,0.55C14,0.55,14.24,14,0,14z"/>
</g></g><g transform="translate(31,434) scale(0.31,0.31)"><g transform="" style="fill: rgb(32, 31, 31);">
<rect width="100" height="100"/>
</g></g><g transform="translate(62,434) scale(0.31,0.31)"><g transform="" style="fill: rgb(32, 31, 31);">
<rect width="100" height="100"/>
</g></g><g transform="translate(93,434) scale(0.31,0.31)"><g transform="" style="fill: rgb(32, 31, 31);">
<rect width="100" height="100"/>
</g></g><g transform="translate(124,434) scale(2.2142857142857,2.2142857142857)"><g transform="" style="fill: rgb(32, 31, 31);">
    <path d="M0,14V0c0,0,9.15,4.38,14,0.55C14,0.55,14.24,14,0,14z"/>
</g></g><g transform="translate(186,434) scale(2.2142857142857,2.2142857142857)"><g transform="" style="fill: rgb(32, 31, 31);">
    <path d="M13.999,0v14c0,0-9.151-4.381-14-0.551C-0.001,13.449-0.242,0,13.999,0z"/>
</g></g><g transform="translate(217,434) scale(2.2142857142857,2.2142857142857)"><g transform="" style="fill: rgb(32, 31, 31);">
    <path d="M0,14V0c0,0,9.15,4.38,14,0.55C14,0.55,14.24,14,0,14z"/>
</g></g><g transform="translate(341,434) scale(2.2142857142857,2.2142857142857)"><g transform="" style="fill: rgb(32, 31, 31);">
        <path d="M0-0.001h14v13.97v0.029l-3.431,0.001C4.731,13.999,0,7.731,0-0.001z"/>
</g></g><g transform="translate(372,434) scale(2.2142857142857,2.2142857142857)"><g transform="" style="fill: rgb(32, 31, 31);">
    <path d="M0,14V0c0,0,9.15,4.38,14,0.55C14,0.55,14.24,14,0,14z"/>
</g></g><g transform="translate(558,434) scale(0.062,0.062)"><g transform="" style="fill: rgb(32, 31, 31);">
<path d="M250,0c138.077,0,250,111.93,250,250c0,138.077-111.923,250-250,250C111.93,500,0,388.077,0,250C0,111.93,111.93,0,250,0z"
	/>
</g></g><g transform="translate(620,434) scale(0.062,0.062)"><g transform="" style="fill: rgb(32, 31, 31);">
<path d="M250,0c138.077,0,250,111.93,250,250c0,138.077-111.923,250-250,250C111.93,500,0,388.077,0,250C0,111.93,111.93,0,250,0z"
	/>
</g></g><g transform="translate(744,434) scale(2.2142857142857,2.2142857142857)"><g transform="" style="fill: rgb(32, 31, 31);">
    <path d="M14,14H0c0,0,4.38-9.15,0.55-14C0.55,0,14-0.24,14,14z"/>
</g></g><g transform="translate(806,434) scale(0.062,0.062)"><g transform="" style="fill: rgb(32, 31, 31);">
<path d="M250,0c138.077,0,250,111.93,250,250c0,138.077-111.923,250-250,250C111.93,500,0,388.077,0,250C0,111.93,111.93,0,250,0z"
	/>
</g></g><g transform="translate(868,434) scale(2.2142857142857,2.2142857142857)"><g transform="" style="fill: rgb(32, 31, 31);">
    <path d="M13.999,0v14c0,0-9.151-4.381-14-0.551C-0.001,13.449-0.242,0,13.999,0z"/>
</g></g><g transform="translate(899,434) scale(2.2142857142857,2.2142857142857)"><g transform="" style="fill: rgb(32, 31, 31);">
    <path d="M13.999,13.999H0V0.028v-0.029h3.43C9.269-0.001,13.999,6.267,13.999,13.999z"/>
</g></g><g transform="translate(31,465) scale(0.31,0.31)"><g transform="" style="fill: rgb(32, 31, 31);">
<rect width="100" height="100"/>
</g></g><g transform="translate(62,465) scale(0.31,0.31)"><g transform="" style="fill: rgb(32, 31, 31);">
<rect width="100" height="100"/>
</g></g><g transform="translate(93,465) scale(2.2142857142857,2.2142857142857)"><g transform="" style="fill: rgb(32, 31, 31);">
    <path d="M0,14V0h13.971H14v3.43C14,9.27,7.732,14,0,14z"/>
</g></g><g transform="translate(155,465) scale(0.062,0.062)"><g transform="" style="fill: rgb(32, 31, 31);">
<path d="M250,0c138.077,0,250,111.93,250,250c0,138.077-111.923,250-250,250C111.93,500,0,388.077,0,250C0,111.93,111.93,0,250,0z"
	/>
</g></g><g transform="translate(403,465) scale(2.2142857142857,2.2142857142857)"><g transform="" style="fill: rgb(32, 31, 31);">
    <path d="M13.999-0.001v14H0.029H0v-3.431C0,4.729,6.267-0.001,13.999-0.001z"/>
</g></g><g transform="translate(434,465) scale(2.2142857142857,2.2142857142857)"><g transform="" style="fill: rgb(32, 31, 31);">
    <path d="M0,14V0c0,0,9.15,4.38,14,0.55C14,0.55,14.24,14,0,14z"/>
</g></g><g transform="translate(496,465) scale(2.2142857142857,2.2142857142857)"><g transform="" style="fill: rgb(32, 31, 31);">
    <path d="M13.999-0.001v14H0.029H0v-3.431C0,4.729,6.267-0.001,13.999-0.001z"/>
</g></g><g transform="translate(527,465) scale(2.2142857142857,2.2142857142857)"><g transform="" style="fill: rgb(32, 31, 31);">
    <path d="M0,14V0c0,0,9.15,4.38,14,0.55C14,0.55,14.24,14,0,14z"/>
</g></g><g transform="translate(589,465) scale(2.2142857142857,2.2142857142857)"><g transform="" style="fill: rgb(32, 31, 31);">
    <path d="M14,14H0c0,0,4.38-9.15,0.55-14C0.55,0,14-0.24,14,14z"/>
</g></g><g transform="translate(713,465) scale(2.2142857142857,2.2142857142857)"><g transform="" style="fill: rgb(32, 31, 31);">
    <path d="M13.999-0.001v14H0.029H0v-3.431C0,4.729,6.267-0.001,13.999-0.001z"/>
</g></g><g transform="translate(744,465) scale(0.31,0.31)"><g transform="" style="fill: rgb(32, 31, 31);">
<rect width="100" height="100"/>
</g></g><g transform="translate(775,465) scale(2.2142857142857,2.2142857142857)"><g transform="" style="fill: rgb(32, 31, 31);">
    <path d="M13.999,13.999H0V0.028v-0.029h3.43C9.269-0.001,13.999,6.267,13.999,13.999z"/>
</g></g><g transform="translate(837,465) scale(2.2142857142857,2.2142857142857)"><g transform="" style="fill: rgb(32, 31, 31);">
    <path d="M14,14H0c0,0,4.38-9.15,0.55-14C0.55,0,14-0.24,14,14z"/>
</g></g><g transform="translate(899,465) scale(0.31,0.31)"><g transform="" style="fill: rgb(32, 31, 31);">
<rect width="100" height="100"/>
</g></g><g transform="translate(930,465) scale(0.31,0.31)"><g transform="" style="fill: rgb(32, 31, 31);">
<rect width="100" height="100"/>
</g></g><g transform="translate(961,465) scale(0.31,0.31)"><g transform="" style="fill: rgb(32, 31, 31);">
<rect width="100" height="100"/>
</g></g><g transform="translate(992,465) scale(2.2142857142857,2.2142857142857)"><g transform="" style="fill: rgb(32, 31, 31);">
    <path d="M0,14V0c0,0,9.15,4.38,14,0.55C14,0.55,14.24,14,0,14z"/>
</g></g><g transform="translate(0,496) scale(2.2142857142857,2.2142857142857)"><g transform="" style="fill: rgb(32, 31, 31);">
    <path d="M13.999-0.001v14H0.029H0v-3.431C0,4.729,6.267-0.001,13.999-0.001z"/>
</g></g><g transform="translate(31,496) scale(2.2142857142857,2.2142857142857)"><g transform="" style="fill: rgb(32, 31, 31);">
    <path d="M0,14V0h13.971H14v3.43C14,9.27,7.732,14,0,14z"/>
</g></g><g transform="translate(124,496) scale(0.062,0.062)"><g transform="" style="fill: rgb(32, 31, 31);">
<path d="M250,0c138.077,0,250,111.93,250,250c0,138.077-111.923,250-250,250C111.93,500,0,388.077,0,250C0,111.93,111.93,0,250,0z"
	/>
</g></g><g transform="translate(186,496) scale(2.2142857142857,2.2142857142857)"><g transform="" style="fill: rgb(32, 31, 31);">
    <path d="M13.999,0v14c0,0-9.151-4.381-14-0.551C-0.001,13.449-0.242,0,13.999,0z"/>
</g></g><g transform="translate(217,496) scale(2.2142857142857,2.2142857142857)"><g transform="" style="fill: rgb(32, 31, 31);">
    <path d="M0,14V0c0,0,9.15,4.38,14,0.55C14,0.55,14.24,14,0,14z"/>
</g></g><g transform="translate(279,496) scale(2.2142857142857,2.2142857142857)"><g transform="" style="fill: rgb(32, 31, 31);">
    <path d="M13.999-0.001v14H0.029H0v-3.431C0,4.729,6.267-0.001,13.999-0.001z"/>
</g></g><g transform="translate(310,496) scale(2.2142857142857,2.2142857142857)"><g transform="" style="fill: rgb(32, 31, 31);">
    <path d="M0,14V0c0,0,9.15,4.38,14,0.55C14,0.55,14.24,14,0,14z"/>
</g></g><g transform="translate(403,496) scale(2.2142857142857,2.2142857142857)"><g transform="" style="fill: rgb(32, 31, 31);">
    <path d="M-0.001,0l14,0c0,0-4.381,9.151-0.551,14C13.448,14-0.001,14.24-0.001,0z"/>
</g></g><g transform="translate(496,496) scale(2.2142857142857,2.2142857142857)"><g transform="" style="fill: rgb(32, 31, 31);">
    <path d="M-0.001,0l14,0c0,0-4.381,9.151-0.551,14C13.448,14-0.001,14.24-0.001,0z"/>
</g></g><g transform="translate(558,496) scale(2.2142857142857,2.2142857142857)"><g transform="" style="fill: rgb(32, 31, 31);">
    <path d="M13.999-0.001v14H0.029H0v-3.431C0,4.729,6.267-0.001,13.999-0.001z"/>
</g></g><g transform="translate(589,496) scale(2.2142857142857,2.2142857142857)"><g transform="" style="fill: rgb(32, 31, 31);">
    <path d="M0,14V0h13.971H14v3.43C14,9.27,7.732,14,0,14z"/>
</g></g><g transform="translate(713,496) scale(2.2142857142857,2.2142857142857)"><g transform="" style="fill: rgb(32, 31, 31);">
    <path d="M-0.001,0l14,0c0,0-4.381,9.151-0.551,14C13.448,14-0.001,14.24-0.001,0z"/>
</g></g><g transform="translate(775,496) scale(2.2142857142857,2.2142857142857)"><g transform="" style="fill: rgb(32, 31, 31);">
        <path d="M0-0.001h14v13.97v0.029l-3.431,0.001C4.731,13.999,0,7.731,0-0.001z"/>
</g></g><g transform="translate(806,496) scale(0.31,0.31)"><g transform="" style="fill: rgb(32, 31, 31);">
<rect width="100" height="100"/>
</g></g><g transform="translate(837,496) scale(0.31,0.31)"><g transform="" style="fill: rgb(32, 31, 31);">
<rect width="100" height="100"/>
</g></g><g transform="translate(868,496) scale(0.31,0.31)"><g transform="" style="fill: rgb(32, 31, 31);">
<rect width="100" height="100"/>
</g></g><g transform="translate(899,496) scale(0.31,0.31)"><g transform="" style="fill: rgb(32, 31, 31);">
<rect width="100" height="100"/>
</g></g><g transform="translate(961,496) scale(2.2142857142857,2.2142857142857)"><g transform="" style="fill: rgb(32, 31, 31);">
    <path d="M-0.001,0l14,0c0,0-4.381,9.151-0.551,14C13.448,14-0.001,14.24-0.001,0z"/>
</g></g><g transform="translate(0,527) scale(2.2142857142857,2.2142857142857)"><g transform="" style="fill: rgb(32, 31, 31);">
    <path d="M-0.001,0l14,0c0,0-4.381,9.151-0.551,14C13.448,14-0.001,14.24-0.001,0z"/>
</g></g><g transform="translate(93,527) scale(2.2142857142857,2.2142857142857)"><g transform="" style="fill: rgb(32, 31, 31);">
    <path d="M14,14H0c0,0,4.38-9.15,0.55-14C0.55,0,14-0.24,14,14z"/>
</g></g><g transform="translate(155,527) scale(2.2142857142857,2.2142857142857)"><g transform="" style="fill: rgb(32, 31, 31);">
    <path d="M14,14H0c0,0,4.38-9.15,0.55-14C0.55,0,14-0.24,14,14z"/>
</g></g><g transform="translate(248,527) scale(2.2142857142857,2.2142857142857)"><g transform="" style="fill: rgb(32, 31, 31);">
    <path d="M13.999,0v14c0,0-9.151-4.381-14-0.551C-0.001,13.449-0.242,0,13.999,0z"/>
</g></g><g transform="translate(279,527) scale(0.31,0.31)"><g transform="" style="fill: rgb(32, 31, 31);">
<rect width="100" height="100"/>
</g></g><g transform="translate(341,527) scale(2.2142857142857,2.2142857142857)"><g transform="" style="fill: rgb(32, 31, 31);">
    <path d="M13.999-0.001v14H0.029H0v-3.431C0,4.729,6.267-0.001,13.999-0.001z"/>
</g></g><g transform="translate(372,527) scale(2.2142857142857,2.2142857142857)"><g transform="" style="fill: rgb(32, 31, 31);">
    <path d="M0,14V0c0,0,9.15,4.38,14,0.55C14,0.55,14.24,14,0,14z"/>
</g></g><g transform="translate(434,527) scale(0.062,0.062)"><g transform="" style="fill: rgb(32, 31, 31);">
<path d="M250,0c138.077,0,250,111.93,250,250c0,138.077-111.923,250-250,250C111.93,500,0,388.077,0,250C0,111.93,111.93,0,250,0z"
	/>
</g></g><g transform="translate(527,527) scale(2.2142857142857,2.2142857142857)"><g transform="" style="fill: rgb(32, 31, 31);">
    <path d="M13.999-0.001v14H0.029H0v-3.431C0,4.729,6.267-0.001,13.999-0.001z"/>
</g></g><g transform="translate(558,527) scale(2.2142857142857,2.2142857142857)"><g transform="" style="fill: rgb(32, 31, 31);">
    <path d="M0,14V0h13.971H14v3.43C14,9.27,7.732,14,0,14z"/>
</g></g><g transform="translate(620,527) scale(2.2142857142857,2.2142857142857)"><g transform="" style="fill: rgb(32, 31, 31);">
    <path d="M13.999-0.001v14H0.029H0v-3.431C0,4.729,6.267-0.001,13.999-0.001z"/>
</g></g><g transform="translate(651,527) scale(0.31,0.31)"><g transform="" style="fill: rgb(32, 31, 31);">
<rect width="100" height="100"/>
</g></g><g transform="translate(682,527) scale(2.2142857142857,2.2142857142857)"><g transform="" style="fill: rgb(32, 31, 31);">
    <path d="M0,14V0c0,0,9.15,4.38,14,0.55C14,0.55,14.24,14,0,14z"/>
</g></g><g transform="translate(744,527) scale(0.062,0.062)"><g transform="" style="fill: rgb(32, 31, 31);">
<path d="M250,0c138.077,0,250,111.93,250,250c0,138.077-111.923,250-250,250C111.93,500,0,388.077,0,250C0,111.93,111.93,0,250,0z"
	/>
</g></g><g transform="translate(806,527) scale(2.2142857142857,2.2142857142857)"><g transform="" style="fill: rgb(32, 31, 31);">
        <path d="M0-0.001h14v13.97v0.029l-3.431,0.001C4.731,13.999,0,7.731,0-0.001z"/>
</g></g><g transform="translate(837,527) scale(0.31,0.31)"><g transform="" style="fill: rgb(32, 31, 31);">
<rect width="100" height="100"/>
</g></g><g transform="translate(868,527) scale(0.31,0.31)"><g transform="" style="fill: rgb(32, 31, 31);">
<rect width="100" height="100"/>
</g></g><g transform="translate(899,527) scale(0.31,0.31)"><g transform="" style="fill: rgb(32, 31, 31);">
<rect width="100" height="100"/>
</g></g><g transform="translate(992,527) scale(2.2142857142857,2.2142857142857)"><g transform="" style="fill: rgb(32, 31, 31);">
    <path d="M14,14H0c0,0,4.38-9.15,0.55-14C0.55,0,14-0.24,14,14z"/>
</g></g><g transform="translate(31,558) scale(2.2142857142857,2.2142857142857)"><g transform="" style="fill: rgb(32, 31, 31);">
    <path d="M14,14H0c0,0,4.38-9.15,0.55-14C0.55,0,14-0.24,14,14z"/>
</g></g><g transform="translate(93,558) scale(0.31,0.31)"><g transform="" style="fill: rgb(32, 31, 31);">
<rect width="100" height="100"/>
</g></g><g transform="translate(124,558) scale(0.31,0.31)"><g transform="" style="fill: rgb(32, 31, 31);">
<rect width="100" height="100"/>
</g></g><g transform="translate(155,558) scale(0.31,0.31)"><g transform="" style="fill: rgb(32, 31, 31);">
<rect width="100" height="100"/>
</g></g><g transform="translate(186,558) scale(0.31,0.31)"><g transform="" style="fill: rgb(32, 31, 31);">
<rect width="100" height="100"/>
</g></g><g transform="translate(217,558) scale(2.2142857142857,2.2142857142857)"><g transform="" style="fill: rgb(32, 31, 31);">
    <path d="M13.999,13.999H0V0.028v-0.029h3.43C9.269-0.001,13.999,6.267,13.999,13.999z"/>
</g></g><g transform="translate(279,558) scale(0.31,0.31)"><g transform="" style="fill: rgb(32, 31, 31);">
<rect width="100" height="100"/>
</g></g><g transform="translate(341,558) scale(0.31,0.31)"><g transform="" style="fill: rgb(32, 31, 31);">
<rect width="100" height="100"/>
</g></g><g transform="translate(403,558) scale(2.2142857142857,2.2142857142857)"><g transform="" style="fill: rgb(32, 31, 31);">
    <path d="M14,14H0c0,0,4.38-9.15,0.55-14C0.55,0,14-0.24,14,14z"/>
</g></g><g transform="translate(465,558) scale(2.2142857142857,2.2142857142857)"><g transform="" style="fill: rgb(32, 31, 31);">
    <path d="M14,14H0c0,0,4.38-9.15,0.55-14C0.55,0,14-0.24,14,14z"/>
</g></g><g transform="translate(527,558) scale(0.31,0.31)"><g transform="" style="fill: rgb(32, 31, 31);">
<rect width="100" height="100"/>
</g></g><g transform="translate(620,558) scale(2.2142857142857,2.2142857142857)"><g transform="" style="fill: rgb(32, 31, 31);">
    <path d="M-0.001,0l14,0c0,0-4.381,9.151-0.551,14C13.448,14-0.001,14.24-0.001,0z"/>
</g></g><g transform="translate(713,558) scale(2.2142857142857,2.2142857142857)"><g transform="" style="fill: rgb(32, 31, 31);">
    <path d="M14,14H0c0,0,4.38-9.15,0.55-14C0.55,0,14-0.24,14,14z"/>
</g></g><g transform="translate(868,558) scale(0.31,0.31)"><g transform="" style="fill: rgb(32, 31, 31);">
<rect width="100" height="100"/>
</g></g><g transform="translate(899,558) scale(0.31,0.31)"><g transform="" style="fill: rgb(32, 31, 31);">
<rect width="100" height="100"/>
</g></g><g transform="translate(930,558) scale(2.2142857142857,2.2142857142857)"><g transform="" style="fill: rgb(32, 31, 31);">
    <path d="M13.999,13.999H0V0.028v-0.029h3.43C9.269-0.001,13.999,6.267,13.999,13.999z"/>
</g></g><g transform="translate(992,558) scale(2.2142857142857,2.2142857142857)"><g transform="" style="fill: rgb(32, 31, 31);">
    <path d="M-0.001,0l14,0c0,0-4.381,9.151-0.551,14C13.448,14-0.001,14.24-0.001,0z"/>
</g></g><g transform="translate(0,589) scale(2.2142857142857,2.2142857142857)"><g transform="" style="fill: rgb(32, 31, 31);">
    <path d="M13.999,0v14c0,0-9.151-4.381-14-0.551C-0.001,13.449-0.242,0,13.999,0z"/>
</g></g><g transform="translate(31,589) scale(0.31,0.31)"><g transform="" style="fill: rgb(32, 31, 31);">
<rect width="100" height="100"/>
</g></g><g transform="translate(93,589) scale(0.31,0.31)"><g transform="" style="fill: rgb(32, 31, 31);">
<rect width="100" height="100"/>
</g></g><g transform="translate(155,589) scale(2.2142857142857,2.2142857142857)"><g transform="" style="fill: rgb(32, 31, 31);">
    <path d="M-0.001,0l14,0c0,0-4.381,9.151-0.551,14C13.448,14-0.001,14.24-0.001,0z"/>
</g></g><g transform="translate(217,589) scale(0.31,0.31)"><g transform="" style="fill: rgb(32, 31, 31);">
<rect width="100" height="100"/>
</g></g><g transform="translate(279,589) scale(0.31,0.31)"><g transform="" style="fill: rgb(32, 31, 31);">
<rect width="100" height="100"/>
</g></g><g transform="translate(341,589) scale(2.2142857142857,2.2142857142857)"><g transform="" style="fill: rgb(32, 31, 31);">
        <path d="M0-0.001h14v13.97v0.029l-3.431,0.001C4.731,13.999,0,7.731,0-0.001z"/>
</g></g><g transform="translate(372,589) scale(0.31,0.31)"><g transform="" style="fill: rgb(32, 31, 31);">
<rect width="100" height="100"/>
</g></g><g transform="translate(403,589) scale(0.31,0.31)"><g transform="" style="fill: rgb(32, 31, 31);">
<rect width="100" height="100"/>
</g></g><g transform="translate(465,589) scale(0.31,0.31)"><g transform="" style="fill: rgb(32, 31, 31);">
<rect width="100" height="100"/>
</g></g><g transform="translate(527,589) scale(2.2142857142857,2.2142857142857)"><g transform="" style="fill: rgb(32, 31, 31);">
    <path d="M-0.001,0l14,0c0,0-4.381,9.151-0.551,14C13.448,14-0.001,14.24-0.001,0z"/>
</g></g><g transform="translate(589,589) scale(2.2142857142857,2.2142857142857)"><g transform="" style="fill: rgb(32, 31, 31);">
    <path d="M14,14H0c0,0,4.38-9.15,0.55-14C0.55,0,14-0.24,14,14z"/>
</g></g><g transform="translate(682,589) scale(2.2142857142857,2.2142857142857)"><g transform="" style="fill: rgb(32, 31, 31);">
    <path d="M13.999,0v14c0,0-9.151-4.381-14-0.551C-0.001,13.449-0.242,0,13.999,0z"/>
</g></g><g transform="translate(713,589) scale(0.31,0.31)"><g transform="" style="fill: rgb(32, 31, 31);">
<rect width="100" height="100"/>
</g></g><g transform="translate(744,589) scale(0.31,0.31)"><g transform="" style="fill: rgb(32, 31, 31);">
<rect width="100" height="100"/>
</g></g><g transform="translate(775,589) scale(2.2142857142857,2.2142857142857)"><g transform="" style="fill: rgb(32, 31, 31);">
    <path d="M0,14V0c0,0,9.15,4.38,14,0.55C14,0.55,14.24,14,0,14z"/>
</g></g><g transform="translate(837,589) scale(2.2142857142857,2.2142857142857)"><g transform="" style="fill: rgb(32, 31, 31);">
    <path d="M13.999-0.001v14H0.029H0v-3.431C0,4.729,6.267-0.001,13.999-0.001z"/>
</g></g><g transform="translate(868,589) scale(0.31,0.31)"><g transform="" style="fill: rgb(32, 31, 31);">
<rect width="100" height="100"/>
</g></g><g transform="translate(899,589) scale(0.31,0.31)"><g transform="" style="fill: rgb(32, 31, 31);">
<rect width="100" height="100"/>
</g></g><g transform="translate(930,589) scale(0.31,0.31)"><g transform="" style="fill: rgb(32, 31, 31);">
<rect width="100" height="100"/>
</g></g><g transform="translate(961,589) scale(2.2142857142857,2.2142857142857)"><g transform="" style="fill: rgb(32, 31, 31);">
    <path d="M0,14V0c0,0,9.15,4.38,14,0.55C14,0.55,14.24,14,0,14z"/>
</g></g><g transform="translate(31,620) scale(0.31,0.31)"><g transform="" style="fill: rgb(32, 31, 31);">
<rect width="100" height="100"/>
</g></g><g transform="translate(93,620) scale(2.2142857142857,2.2142857142857)"><g transform="" style="fill: rgb(32, 31, 31);">
    <path d="M-0.001,0l14,0c0,0-4.381,9.151-0.551,14C13.448,14-0.001,14.24-0.001,0z"/>
</g></g><g transform="translate(186,620) scale(2.2142857142857,2.2142857142857)"><g transform="" style="fill: rgb(32, 31, 31);">
    <path d="M13.999,0v14c0,0-9.151-4.381-14-0.551C-0.001,13.449-0.242,0,13.999,0z"/>
</g></g><g transform="translate(217,620) scale(0.31,0.31)"><g transform="" style="fill: rgb(32, 31, 31);">
<rect width="100" height="100"/>
</g></g><g transform="translate(279,620) scale(2.2142857142857,2.2142857142857)"><g transform="" style="fill: rgb(32, 31, 31);">
        <path d="M0-0.001h14v13.97v0.029l-3.431,0.001C4.731,13.999,0,7.731,0-0.001z"/>
</g></g><g transform="translate(310,620) scale(2.2142857142857,2.2142857142857)"><g transform="" style="fill: rgb(32, 31, 31);">
    <path d="M0,14V0c0,0,9.15,4.38,14,0.55C14,0.55,14.24,14,0,14z"/>
</g></g><g transform="translate(372,620) scale(0.31,0.31)"><g transform="" style="fill: rgb(32, 31, 31);">
<rect width="100" height="100"/>
</g></g><g transform="translate(403,620) scale(0.31,0.31)"><g transform="" style="fill: rgb(32, 31, 31);">
<rect width="100" height="100"/>
</g></g><g transform="translate(434,620) scale(0.31,0.31)"><g transform="" style="fill: rgb(32, 31, 31);">
<rect width="100" height="100"/>
</g></g><g transform="translate(465,620) scale(0.31,0.31)"><g transform="" style="fill: rgb(32, 31, 31);">
<rect width="100" height="100"/>
</g></g><g transform="translate(589,620) scale(0.31,0.31)"><g transform="" style="fill: rgb(32, 31, 31);">
<rect width="100" height="100"/>
</g></g><g transform="translate(620,620) scale(2.2142857142857,2.2142857142857)"><g transform="" style="fill: rgb(32, 31, 31);">
    <path d="M13.999,13.999H0V0.028v-0.029h3.43C9.269-0.001,13.999,6.267,13.999,13.999z"/>
</g></g><g transform="translate(806,620) scale(2.2142857142857,2.2142857142857)"><g transform="" style="fill: rgb(32, 31, 31);">
    <path d="M13.999-0.001v14H0.029H0v-3.431C0,4.729,6.267-0.001,13.999-0.001z"/>
</g></g><g transform="translate(837,620) scale(2.2142857142857,2.2142857142857)"><g transform="" style="fill: rgb(32, 31, 31);">
    <path d="M0,14V0h13.971H14v3.43C14,9.27,7.732,14,0,14z"/>
</g></g><g transform="translate(899,620) scale(0.31,0.31)"><g transform="" style="fill: rgb(32, 31, 31);">
<rect width="100" height="100"/>
</g></g><g transform="translate(992,620) scale(0.062,0.062)"><g transform="" style="fill: rgb(32, 31, 31);">
<path d="M250,0c138.077,0,250,111.93,250,250c0,138.077-111.923,250-250,250C111.93,500,0,388.077,0,250C0,111.93,111.93,0,250,0z"
	/>
</g></g><g transform="translate(0,651) scale(2.2142857142857,2.2142857142857)"><g transform="" style="fill: rgb(32, 31, 31);">
    <path d="M13.999-0.001v14H0.029H0v-3.431C0,4.729,6.267-0.001,13.999-0.001z"/>
</g></g><g transform="translate(31,651) scale(2.2142857142857,2.2142857142857)"><g transform="" style="fill: rgb(32, 31, 31);">
    <path d="M0,14V0h13.971H14v3.43C14,9.27,7.732,14,0,14z"/>
</g></g><g transform="translate(124,651) scale(2.2142857142857,2.2142857142857)"><g transform="" style="fill: rgb(32, 31, 31);">
    <path d="M14,14H0c0,0,4.38-9.15,0.55-14C0.55,0,14-0.24,14,14z"/>
</g></g><g transform="translate(217,651) scale(0.31,0.31)"><g transform="" style="fill: rgb(32, 31, 31);">
<rect width="100" height="100"/>
</g></g><g transform="translate(372,651) scale(0.31,0.31)"><g transform="" style="fill: rgb(32, 31, 31);">
<rect width="100" height="100"/>
</g></g><g transform="translate(465,651) scale(0.31,0.31)"><g transform="" style="fill: rgb(32, 31, 31);">
<rect width="100" height="100"/>
</g></g><g transform="translate(527,651) scale(2.2142857142857,2.2142857142857)"><g transform="" style="fill: rgb(32, 31, 31);">
    <path d="M13.999-0.001v14H0.029H0v-3.431C0,4.729,6.267-0.001,13.999-0.001z"/>
</g></g><g transform="translate(558,651) scale(0.31,0.31)"><g transform="" style="fill: rgb(32, 31, 31);">
<rect width="100" height="100"/>
</g></g><g transform="translate(589,651) scale(0.31,0.31)"><g transform="" style="fill: rgb(32, 31, 31);">
<rect width="100" height="100"/>
</g></g><g transform="translate(620,651) scale(0.31,0.31)"><g transform="" style="fill: rgb(32, 31, 31);">
<rect width="100" height="100"/>
</g></g><g transform="translate(651,651) scale(0.31,0.31)"><g transform="" style="fill: rgb(32, 31, 31);">
<rect width="100" height="100"/>
</g></g><g transform="translate(682,651) scale(2.2142857142857,2.2142857142857)"><g transform="" style="fill: rgb(32, 31, 31);">
    <path d="M0,14V0c0,0,9.15,4.38,14,0.55C14,0.55,14.24,14,0,14z"/>
</g></g><g transform="translate(744,651) scale(0.062,0.062)"><g transform="" style="fill: rgb(32, 31, 31);">
<path d="M250,0c138.077,0,250,111.93,250,250c0,138.077-111.923,250-250,250C111.93,500,0,388.077,0,250C0,111.93,111.93,0,250,0z"
	/>
</g></g><g transform="translate(806,651) scale(0.31,0.31)"><g transform="" style="fill: rgb(32, 31, 31);">
<rect width="100" height="100"/>
</g></g><g transform="translate(868,651) scale(2.2142857142857,2.2142857142857)"><g transform="" style="fill: rgb(32, 31, 31);">
    <path d="M13.999-0.001v14H0.029H0v-3.431C0,4.729,6.267-0.001,13.999-0.001z"/>
</g></g><g transform="translate(899,651) scale(0.31,0.31)"><g transform="" style="fill: rgb(32, 31, 31);">
<rect width="100" height="100"/>
</g></g><g transform="translate(930,651) scale(2.2142857142857,2.2142857142857)"><g transform="" style="fill: rgb(32, 31, 31);">
    <path d="M0,14V0c0,0,9.15,4.38,14,0.55C14,0.55,14.24,14,0,14z"/>
</g></g><g transform="translate(0,682) scale(0.31,0.31)"><g transform="" style="fill: rgb(32, 31, 31);">
<rect width="100" height="100"/>
</g></g><g transform="translate(93,682) scale(2.2142857142857,2.2142857142857)"><g transform="" style="fill: rgb(32, 31, 31);">
    <path d="M13.999-0.001v14H0.029H0v-3.431C0,4.729,6.267-0.001,13.999-0.001z"/>
</g></g><g transform="translate(124,682) scale(0.31,0.31)"><g transform="" style="fill: rgb(32, 31, 31);">
<rect width="100" height="100"/>
</g></g><g transform="translate(155,682) scale(0.31,0.31)"><g transform="" style="fill: rgb(32, 31, 31);">
<rect width="100" height="100"/>
</g></g><g transform="translate(186,682) scale(0.31,0.31)"><g transform="" style="fill: rgb(32, 31, 31);">
<rect width="100" height="100"/>
</g></g><g transform="translate(217,682) scale(2.2142857142857,2.2142857142857)"><g transform="" style="fill: rgb(32, 31, 31);">
    <path d="M0,14V0h13.971H14v3.43C14,9.27,7.732,14,0,14z"/>
</g></g><g transform="translate(279,682) scale(2.2142857142857,2.2142857142857)"><g transform="" style="fill: rgb(32, 31, 31);">
    <path d="M13.999-0.001v14H0.029H0v-3.431C0,4.729,6.267-0.001,13.999-0.001z"/>
</g></g><g transform="translate(310,682) scale(0.31,0.31)"><g transform="" style="fill: rgb(32, 31, 31);">
<rect width="100" height="100"/>
</g></g><g transform="translate(341,682) scale(0.31,0.31)"><g transform="" style="fill: rgb(32, 31, 31);">
<rect width="100" height="100"/>
</g></g><g transform="translate(372,682) scale(2.2142857142857,2.2142857142857)"><g transform="" style="fill: rgb(32, 31, 31);">
    <path d="M0,14V0h13.971H14v3.43C14,9.27,7.732,14,0,14z"/>
</g></g><g transform="translate(434,682) scale(2.2142857142857,2.2142857142857)"><g transform="" style="fill: rgb(32, 31, 31);">
    <path d="M13.999,0v14c0,0-9.151-4.381-14-0.551C-0.001,13.449-0.242,0,13.999,0z"/>
</g></g><g transform="translate(465,682) scale(0.31,0.31)"><g transform="" style="fill: rgb(32, 31, 31);">
<rect width="100" height="100"/>
</g></g><g transform="translate(527,682) scale(0.31,0.31)"><g transform="" style="fill: rgb(32, 31, 31);">
<rect width="100" height="100"/>
</g></g><g transform="translate(558,682) scale(0.31,0.31)"><g transform="" style="fill: rgb(32, 31, 31);">
<rect width="100" height="100"/>
</g></g><g transform="translate(589,682) scale(0.31,0.31)"><g transform="" style="fill: rgb(32, 31, 31);">
<rect width="100" height="100"/>
</g></g><g transform="translate(651,682) scale(2.2142857142857,2.2142857142857)"><g transform="" style="fill: rgb(32, 31, 31);">
    <path d="M-0.001,0l14,0c0,0-4.381,9.151-0.551,14C13.448,14-0.001,14.24-0.001,0z"/>
</g></g><g transform="translate(713,682) scale(2.2142857142857,2.2142857142857)"><g transform="" style="fill: rgb(32, 31, 31);">
    <path d="M14,14H0c0,0,4.38-9.15,0.55-14C0.55,0,14-0.24,14,14z"/>
</g></g><g transform="translate(806,682) scale(2.2142857142857,2.2142857142857)"><g transform="" style="fill: rgb(32, 31, 31);">
    <path d="M-0.001,0l14,0c0,0-4.381,9.151-0.551,14C13.448,14-0.001,14.24-0.001,0z"/>
</g></g><g transform="translate(868,682) scale(0.31,0.31)"><g transform="" style="fill: rgb(32, 31, 31);">
<rect width="100" height="100"/>
</g></g><g transform="translate(961,682) scale(2.2142857142857,2.2142857142857)"><g transform="" style="fill: rgb(32, 31, 31);">
    <path d="M13.999,0v14c0,0-9.151-4.381-14-0.551C-0.001,13.449-0.242,0,13.999,0z"/>
</g></g><g transform="translate(992,682) scale(2.2142857142857,2.2142857142857)"><g transform="" style="fill: rgb(32, 31, 31);">
    <path d="M0,14V0c0,0,9.15,4.38,14,0.55C14,0.55,14.24,14,0,14z"/>
</g></g><g transform="translate(0,713) scale(0.31,0.31)"><g transform="" style="fill: rgb(32, 31, 31);">
<rect width="100" height="100"/>
</g></g><g transform="translate(62,713) scale(2.2142857142857,2.2142857142857)"><g transform="" style="fill: rgb(32, 31, 31);">
    <path d="M13.999-0.001v14H0.029H0v-3.431C0,4.729,6.267-0.001,13.999-0.001z"/>
</g></g><g transform="translate(93,713) scale(0.31,0.31)"><g transform="" style="fill: rgb(32, 31, 31);">
<rect width="100" height="100"/>
</g></g><g transform="translate(279,713) scale(2.2142857142857,2.2142857142857)"><g transform="" style="fill: rgb(32, 31, 31);">
    <path d="M-0.001,0l14,0c0,0-4.381,9.151-0.551,14C13.448,14-0.001,14.24-0.001,0z"/>
</g></g><g transform="translate(341,713) scale(2.2142857142857,2.2142857142857)"><g transform="" style="fill: rgb(32, 31, 31);">
    <path d="M-0.001,0l14,0c0,0-4.381,9.151-0.551,14C13.448,14-0.001,14.24-0.001,0z"/>
</g></g><g transform="translate(465,713) scale(0.31,0.31)"><g transform="" style="fill: rgb(32, 31, 31);">
<rect width="100" height="100"/>
</g></g><g transform="translate(496,713) scale(0.31,0.31)"><g transform="" style="fill: rgb(32, 31, 31);">
<rect width="100" height="100"/>
</g></g><g transform="translate(527,713) scale(2.2142857142857,2.2142857142857)"><g transform="" style="fill: rgb(32, 31, 31);">
    <path d="M0,14V0h13.971H14v3.43C14,9.27,7.732,14,0,14z"/>
</g></g><g transform="translate(589,713) scale(2.2142857142857,2.2142857142857)"><g transform="" style="fill: rgb(32, 31, 31);">
        <path d="M0-0.001h14v13.97v0.029l-3.431,0.001C4.731,13.999,0,7.731,0-0.001z"/>
</g></g><g transform="translate(620,713) scale(2.2142857142857,2.2142857142857)"><g transform="" style="fill: rgb(32, 31, 31);">
    <path d="M0,14V0c0,0,9.15,4.38,14,0.55C14,0.55,14.24,14,0,14z"/>
</g></g><g transform="translate(713,713) scale(0.31,0.31)"><g transform="" style="fill: rgb(32, 31, 31);">
<rect width="100" height="100"/>
</g></g><g transform="translate(744,713) scale(2.2142857142857,2.2142857142857)"><g transform="" style="fill: rgb(32, 31, 31);">
    <path d="M13.999,13.999H0V0.028v-0.029h3.43C9.269-0.001,13.999,6.267,13.999,13.999z"/>
</g></g><g transform="translate(837,713) scale(2.2142857142857,2.2142857142857)"><g transform="" style="fill: rgb(32, 31, 31);">
    <path d="M13.999-0.001v14H0.029H0v-3.431C0,4.729,6.267-0.001,13.999-0.001z"/>
</g></g><g transform="translate(868,713) scale(0.31,0.31)"><g transform="" style="fill: rgb(32, 31, 31);">
<rect width="100" height="100"/>
</g></g><g transform="translate(930,713) scale(0.062,0.062)"><g transform="" style="fill: rgb(32, 31, 31);">
<path d="M250,0c138.077,0,250,111.93,250,250c0,138.077-111.923,250-250,250C111.93,500,0,388.077,0,250C0,111.93,111.93,0,250,0z"
	/>
</g></g><g transform="translate(0,744) scale(2.2142857142857,2.2142857142857)"><g transform="" style="fill: rgb(32, 31, 31);">
        <path d="M0-0.001h14v13.97v0.029l-3.431,0.001C4.731,13.999,0,7.731,0-0.001z"/>
</g></g><g transform="translate(31,744) scale(0.31,0.31)"><g transform="" style="fill: rgb(32, 31, 31);">
<rect width="100" height="100"/>
</g></g><g transform="translate(62,744) scale(0.31,0.31)"><g transform="" style="fill: rgb(32, 31, 31);">
<rect width="100" height="100"/>
</g></g><g transform="translate(93,744) scale(0.31,0.31)"><g transform="" style="fill: rgb(32, 31, 31);">
<rect width="100" height="100"/>
</g></g><g transform="translate(124,744) scale(2.2142857142857,2.2142857142857)"><g transform="" style="fill: rgb(32, 31, 31);">
    <path d="M0,14V0c0,0,9.15,4.38,14,0.55C14,0.55,14.24,14,0,14z"/>
</g></g><g transform="translate(186,744) scale(2.2142857142857,2.2142857142857)"><g transform="" style="fill: rgb(32, 31, 31);">
    <path d="M13.999,0v14c0,0-9.151-4.381-14-0.551C-0.001,13.449-0.242,0,13.999,0z"/>
</g></g><g transform="translate(217,744) scale(2.2142857142857,2.2142857142857)"><g transform="" style="fill: rgb(32, 31, 31);">
    <path d="M0,14V0c0,0,9.15,4.38,14,0.55C14,0.55,14.24,14,0,14z"/>
</g></g><g transform="translate(372,744) scale(0.062,0.062)"><g transform="" style="fill: rgb(32, 31, 31);">
<path d="M250,0c138.077,0,250,111.93,250,250c0,138.077-111.923,250-250,250C111.93,500,0,388.077,0,250C0,111.93,111.93,0,250,0z"
	/>
</g></g><g transform="translate(434,744) scale(2.2142857142857,2.2142857142857)"><g transform="" style="fill: rgb(32, 31, 31);">
    <path d="M13.999-0.001v14H0.029H0v-3.431C0,4.729,6.267-0.001,13.999-0.001z"/>
</g></g><g transform="translate(465,744) scale(0.31,0.31)"><g transform="" style="fill: rgb(32, 31, 31);">
<rect width="100" height="100"/>
</g></g><g transform="translate(682,744) scale(2.2142857142857,2.2142857142857)"><g transform="" style="fill: rgb(32, 31, 31);">
    <path d="M13.999,0v14c0,0-9.151-4.381-14-0.551C-0.001,13.449-0.242,0,13.999,0z"/>
</g></g><g transform="translate(713,744) scale(0.31,0.31)"><g transform="" style="fill: rgb(32, 31, 31);">
<rect width="100" height="100"/>
</g></g><g transform="translate(744,744) scale(0.31,0.31)"><g transform="" style="fill: rgb(32, 31, 31);">
<rect width="100" height="100"/>
</g></g><g transform="translate(775,744) scale(0.31,0.31)"><g transform="" style="fill: rgb(32, 31, 31);">
<rect width="100" height="100"/>
</g></g><g transform="translate(806,744) scale(0.31,0.31)"><g transform="" style="fill: rgb(32, 31, 31);">
<rect width="100" height="100"/>
</g></g><g transform="translate(837,744) scale(0.31,0.31)"><g transform="" style="fill: rgb(32, 31, 31);">
<rect width="100" height="100"/>
</g></g><g transform="translate(868,744) scale(0.31,0.31)"><g transform="" style="fill: rgb(32, 31, 31);">
<rect width="100" height="100"/>
</g></g><g transform="translate(992,744) scale(0.062,0.062)"><g transform="" style="fill: rgb(32, 31, 31);">
<path d="M250,0c138.077,0,250,111.93,250,250c0,138.077-111.923,250-250,250C111.93,500,0,388.077,0,250C0,111.93,111.93,0,250,0z"
	/>
</g></g><g transform="translate(248,775) scale(2.2142857142857,2.2142857142857)"><g transform="" style="fill: rgb(32, 31, 31);">
    <path d="M14,14H0c0,0,4.38-9.15,0.55-14C0.55,0,14-0.24,14,14z"/>
</g></g><g transform="translate(341,775) scale(0.062,0.062)"><g transform="" style="fill: rgb(32, 31, 31);">
<path d="M250,0c138.077,0,250,111.93,250,250c0,138.077-111.923,250-250,250C111.93,500,0,388.077,0,250C0,111.93,111.93,0,250,0z"
	/>
</g></g><g transform="translate(403,775) scale(2.2142857142857,2.2142857142857)"><g transform="" style="fill: rgb(32, 31, 31);">
    <path d="M13.999-0.001v14H0.029H0v-3.431C0,4.729,6.267-0.001,13.999-0.001z"/>
</g></g><g transform="translate(434,775) scale(0.31,0.31)"><g transform="" style="fill: rgb(32, 31, 31);">
<rect width="100" height="100"/>
</g></g><g transform="translate(465,775) scale(0.31,0.31)"><g transform="" style="fill: rgb(32, 31, 31);">
<rect width="100" height="100"/>
</g></g><g transform="translate(496,775) scale(2.2142857142857,2.2142857142857)"><g transform="" style="fill: rgb(32, 31, 31);">
    <path d="M13.999,13.999H0V0.028v-0.029h3.43C9.269-0.001,13.999,6.267,13.999,13.999z"/>
</g></g><g transform="translate(589,775) scale(2.2142857142857,2.2142857142857)"><g transform="" style="fill: rgb(32, 31, 31);">
    <path d="M13.999,0v14c0,0-9.151-4.381-14-0.551C-0.001,13.449-0.242,0,13.999,0z"/>
</g></g><g transform="translate(620,775) scale(0.31,0.31)"><g transform="" style="fill: rgb(32, 31, 31);">
<rect width="100" height="100"/>
</g></g><g transform="translate(651,775) scale(2.2142857142857,2.2142857142857)"><g transform="" style="fill: rgb(32, 31, 31);">
    <path d="M0,14V0c0,0,9.15,4.38,14,0.55C14,0.55,14.24,14,0,14z"/>
</g></g><g transform="translate(744,775) scale(0.31,0.31)"><g transform="" style="fill: rgb(32, 31, 31);">
<rect width="100" height="100"/>
</g></g><g transform="translate(868,775) scale(0.31,0.31)"><g transform="" style="fill: rgb(32, 31, 31);">
<rect width="100" height="100"/>
</g></g><g transform="translate(899,775) scale(2.2142857142857,2.2142857142857)"><g transform="" style="fill: rgb(32, 31, 31);">
    <path d="M13.999,13.999H0V0.028v-0.029h3.43C9.269-0.001,13.999,6.267,13.999,13.999z"/>
</g></g><g transform="translate(248,806) scale(2.2142857142857,2.2142857142857)"><g transform="" style="fill: rgb(32, 31, 31);">
        <path d="M0-0.001h14v13.97v0.029l-3.431,0.001C4.731,13.999,0,7.731,0-0.001z"/>
</g></g><g transform="translate(279,806) scale(2.2142857142857,2.2142857142857)"><g transform="" style="fill: rgb(32, 31, 31);">
    <path d="M0,14V0c0,0,9.15,4.38,14,0.55C14,0.55,14.24,14,0,14z"/>
</g></g><g transform="translate(403,806) scale(0.31,0.31)"><g transform="" style="fill: rgb(32, 31, 31);">
<rect width="100" height="100"/>
</g></g><g transform="translate(465,806) scale(0.31,0.31)"><g transform="" style="fill: rgb(32, 31, 31);">
<rect width="100" height="100"/>
</g></g><g transform="translate(496,806) scale(0.31,0.31)"><g transform="" style="fill: rgb(32, 31, 31);">
<rect width="100" height="100"/>
</g></g><g transform="translate(527,806) scale(2.2142857142857,2.2142857142857)"><g transform="" style="fill: rgb(32, 31, 31);">
    <path d="M0,14V0c0,0,9.15,4.38,14,0.55C14,0.55,14.24,14,0,14z"/>
</g></g><g transform="translate(620,806) scale(2.2142857142857,2.2142857142857)"><g transform="" style="fill: rgb(32, 31, 31);">
    <path d="M-0.001,0l14,0c0,0-4.381,9.151-0.551,14C13.448,14-0.001,14.24-0.001,0z"/>
</g></g><g transform="translate(713,806) scale(2.2142857142857,2.2142857142857)"><g transform="" style="fill: rgb(32, 31, 31);">
    <path d="M13.999-0.001v14H0.029H0v-3.431C0,4.729,6.267-0.001,13.999-0.001z"/>
</g></g><g transform="translate(744,806) scale(0.31,0.31)"><g transform="" style="fill: rgb(32, 31, 31);">
<rect width="100" height="100"/>
</g></g><g transform="translate(806,806) scale(0.062,0.062)"><g transform="" style="fill: rgb(32, 31, 31);">
<path d="M250,0c138.077,0,250,111.93,250,250c0,138.077-111.923,250-250,250C111.93,500,0,388.077,0,250C0,111.93,111.93,0,250,0z"
	/>
</g></g><g transform="translate(868,806) scale(0.31,0.31)"><g transform="" style="fill: rgb(32, 31, 31);">
<rect width="100" height="100"/>
</g></g><g transform="translate(899,806) scale(0.31,0.31)"><g transform="" style="fill: rgb(32, 31, 31);">
<rect width="100" height="100"/>
</g></g><g transform="translate(930,806) scale(2.2142857142857,2.2142857142857)"><g transform="" style="fill: rgb(32, 31, 31);">
    <path d="M13.999,13.999H0V0.028v-0.029h3.43C9.269-0.001,13.999,6.267,13.999,13.999z"/>
</g></g><g transform="translate(310,837) scale(0.062,0.062)"><g transform="" style="fill: rgb(32, 31, 31);">
<path d="M250,0c138.077,0,250,111.93,250,250c0,138.077-111.923,250-250,250C111.93,500,0,388.077,0,250C0,111.93,111.93,0,250,0z"
	/>
</g></g><g transform="translate(403,837) scale(0.31,0.31)"><g transform="" style="fill: rgb(32, 31, 31);">
<rect width="100" height="100"/>
</g></g><g transform="translate(465,837) scale(2.2142857142857,2.2142857142857)"><g transform="" style="fill: rgb(32, 31, 31);">
        <path d="M0-0.001h14v13.97v0.029l-3.431,0.001C4.731,13.999,0,7.731,0-0.001z"/>
</g></g><g transform="translate(496,837) scale(2.2142857142857,2.2142857142857)"><g transform="" style="fill: rgb(32, 31, 31);">
    <path d="M0,14V0h13.971H14v3.43C14,9.27,7.732,14,0,14z"/>
</g></g><g transform="translate(651,837) scale(2.2142857142857,2.2142857142857)"><g transform="" style="fill: rgb(32, 31, 31);">
    <path d="M13.999-0.001v14H0.029H0v-3.431C0,4.729,6.267-0.001,13.999-0.001z"/>
</g></g><g transform="translate(682,837) scale(0.31,0.31)"><g transform="" style="fill: rgb(32, 31, 31);">
<rect width="100" height="100"/>
</g></g><g transform="translate(713,837) scale(0.31,0.31)"><g transform="" style="fill: rgb(32, 31, 31);">
<rect width="100" height="100"/>
</g></g><g transform="translate(744,837) scale(0.31,0.31)"><g transform="" style="fill: rgb(32, 31, 31);">
<rect width="100" height="100"/>
</g></g><g transform="translate(868,837) scale(0.31,0.31)"><g transform="" style="fill: rgb(32, 31, 31);">
<rect width="100" height="100"/>
</g></g><g transform="translate(899,837) scale(0.31,0.31)"><g transform="" style="fill: rgb(32, 31, 31);">
<rect width="100" height="100"/>
</g></g><g transform="translate(930,837) scale(0.31,0.31)"><g transform="" style="fill: rgb(32, 31, 31);">
<rect width="100" height="100"/>
</g></g><g transform="translate(961,837) scale(2.2142857142857,2.2142857142857)"><g transform="" style="fill: rgb(32, 31, 31);">
    <path d="M13.999,13.999H0V0.028v-0.029h3.43C9.269-0.001,13.999,6.267,13.999,13.999z"/>
</g></g><g transform="translate(248,868) scale(2.2142857142857,2.2142857142857)"><g transform="" style="fill: rgb(32, 31, 31);">
    <path d="M13.999-0.001v14H0.029H0v-3.431C0,4.729,6.267-0.001,13.999-0.001z"/>
</g></g><g transform="translate(279,868) scale(2.2142857142857,2.2142857142857)"><g transform="" style="fill: rgb(32, 31, 31);">
    <path d="M13.999,13.999H0V0.028v-0.029h3.43C9.269-0.001,13.999,6.267,13.999,13.999z"/>
</g></g><g transform="translate(372,868) scale(2.2142857142857,2.2142857142857)"><g transform="" style="fill: rgb(32, 31, 31);">
    <path d="M13.999-0.001v14H0.029H0v-3.431C0,4.729,6.267-0.001,13.999-0.001z"/>
</g></g><g transform="translate(403,868) scale(0.31,0.31)"><g transform="" style="fill: rgb(32, 31, 31);">
<rect width="100" height="100"/>
</g></g><g transform="translate(434,868) scale(2.2142857142857,2.2142857142857)"><g transform="" style="fill: rgb(32, 31, 31);">
    <path d="M13.999,13.999H0V0.028v-0.029h3.43C9.269-0.001,13.999,6.267,13.999,13.999z"/>
</g></g><g transform="translate(620,868) scale(2.2142857142857,2.2142857142857)"><g transform="" style="fill: rgb(32, 31, 31);">
    <path d="M13.999-0.001v14H0.029H0v-3.431C0,4.729,6.267-0.001,13.999-0.001z"/>
</g></g><g transform="translate(651,868) scale(0.31,0.31)"><g transform="" style="fill: rgb(32, 31, 31);">
<rect width="100" height="100"/>
</g></g><g transform="translate(682,868) scale(0.31,0.31)"><g transform="" style="fill: rgb(32, 31, 31);">
<rect width="100" height="100"/>
</g></g><g transform="translate(713,868) scale(0.31,0.31)"><g transform="" style="fill: rgb(32, 31, 31);">
<rect width="100" height="100"/>
</g></g><g transform="translate(744,868) scale(0.31,0.31)"><g transform="" style="fill: rgb(32, 31, 31);">
<rect width="100" height="100"/>
</g></g><g transform="translate(775,868) scale(0.31,0.31)"><g transform="" style="fill: rgb(32, 31, 31);">
<rect width="100" height="100"/>
</g></g><g transform="translate(806,868) scale(0.31,0.31)"><g transform="" style="fill: rgb(32, 31, 31);">
<rect width="100" height="100"/>
</g></g><g transform="translate(837,868) scale(0.31,0.31)"><g transform="" style="fill: rgb(32, 31, 31);">
<rect width="100" height="100"/>
</g></g><g transform="translate(868,868) scale(0.31,0.31)"><g transform="" style="fill: rgb(32, 31, 31);">
<rect width="100" height="100"/>
</g></g><g transform="translate(899,868) scale(2.2142857142857,2.2142857142857)"><g transform="" style="fill: rgb(32, 31, 31);">
    <path d="M0,14V0h13.971H14v3.43C14,9.27,7.732,14,0,14z"/>
</g></g><g transform="translate(961,868) scale(0.31,0.31)"><g transform="" style="fill: rgb(32, 31, 31);">
<rect width="100" height="100"/>
</g></g><g transform="translate(248,899) scale(2.2142857142857,2.2142857142857)"><g transform="" style="fill: rgb(32, 31, 31);">
        <path d="M0-0.001h14v13.97v0.029l-3.431,0.001C4.731,13.999,0,7.731,0-0.001z"/>
</g></g><g transform="translate(279,899) scale(0.31,0.31)"><g transform="" style="fill: rgb(32, 31, 31);">
<rect width="100" height="100"/>
</g></g><g transform="translate(341,899) scale(2.2142857142857,2.2142857142857)"><g transform="" style="fill: rgb(32, 31, 31);">
    <path d="M13.999-0.001v14H0.029H0v-3.431C0,4.729,6.267-0.001,13.999-0.001z"/>
</g></g><g transform="translate(372,899) scale(0.31,0.31)"><g transform="" style="fill: rgb(32, 31, 31);">
<rect width="100" height="100"/>
</g></g><g transform="translate(403,899) scale(0.31,0.31)"><g transform="" style="fill: rgb(32, 31, 31);">
<rect width="100" height="100"/>
</g></g><g transform="translate(434,899) scale(0.31,0.31)"><g transform="" style="fill: rgb(32, 31, 31);">
<rect width="100" height="100"/>
</g></g><g transform="translate(465,899) scale(0.31,0.31)"><g transform="" style="fill: rgb(32, 31, 31);">
<rect width="100" height="100"/>
</g></g><g transform="translate(496,899) scale(2.2142857142857,2.2142857142857)"><g transform="" style="fill: rgb(32, 31, 31);">
    <path d="M0,14V0c0,0,9.15,4.38,14,0.55C14,0.55,14.24,14,0,14z"/>
</g></g><g transform="translate(558,899) scale(2.2142857142857,2.2142857142857)"><g transform="" style="fill: rgb(32, 31, 31);">
    <path d="M14,14H0c0,0,4.38-9.15,0.55-14C0.55,0,14-0.24,14,14z"/>
</g></g><g transform="translate(620,899) scale(2.2142857142857,2.2142857142857)"><g transform="" style="fill: rgb(32, 31, 31);">
        <path d="M0-0.001h14v13.97v0.029l-3.431,0.001C4.731,13.999,0,7.731,0-0.001z"/>
</g></g><g transform="translate(651,899) scale(0.31,0.31)"><g transform="" style="fill: rgb(32, 31, 31);">
<rect width="100" height="100"/>
</g></g><g transform="translate(682,899) scale(0.31,0.31)"><g transform="" style="fill: rgb(32, 31, 31);">
<rect width="100" height="100"/>
</g></g><g transform="translate(713,899) scale(2.2142857142857,2.2142857142857)"><g transform="" style="fill: rgb(32, 31, 31);">
    <path d="M0,14V0h13.971H14v3.43C14,9.27,7.732,14,0,14z"/>
</g></g><g transform="translate(775,899) scale(2.2142857142857,2.2142857142857)"><g transform="" style="fill: rgb(32, 31, 31);">
    <path d="M-0.001,0l14,0c0,0-4.381,9.151-0.551,14C13.448,14-0.001,14.24-0.001,0z"/>
</g></g><g transform="translate(837,899) scale(2.2142857142857,2.2142857142857)"><g transform="" style="fill: rgb(32, 31, 31);">
    <path d="M-0.001,0l14,0c0,0-4.381,9.151-0.551,14C13.448,14-0.001,14.24-0.001,0z"/>
</g></g><g transform="translate(961,899) scale(0.31,0.31)"><g transform="" style="fill: rgb(32, 31, 31);">
<rect width="100" height="100"/>
</g></g><g transform="translate(279,930) scale(2.2142857142857,2.2142857142857)"><g transform="" style="fill: rgb(32, 31, 31);">
    <path d="M-0.001,0l14,0c0,0-4.381,9.151-0.551,14C13.448,14-0.001,14.24-0.001,0z"/>
</g></g><g transform="translate(341,930) scale(2.2142857142857,2.2142857142857)"><g transform="" style="fill: rgb(32, 31, 31);">
        <path d="M0-0.001h14v13.97v0.029l-3.431,0.001C4.731,13.999,0,7.731,0-0.001z"/>
</g></g><g transform="translate(372,930) scale(0.31,0.31)"><g transform="" style="fill: rgb(32, 31, 31);">
<rect width="100" height="100"/>
</g></g><g transform="translate(434,930) scale(0.31,0.31)"><g transform="" style="fill: rgb(32, 31, 31);">
<rect width="100" height="100"/>
</g></g><g transform="translate(465,930) scale(2.2142857142857,2.2142857142857)"><g transform="" style="fill: rgb(32, 31, 31);">
    <path d="M0,14V0h13.971H14v3.43C14,9.27,7.732,14,0,14z"/>
</g></g><g transform="translate(527,930) scale(2.2142857142857,2.2142857142857)"><g transform="" style="fill: rgb(32, 31, 31);">
    <path d="M13.999,0v14c0,0-9.151-4.381-14-0.551C-0.001,13.449-0.242,0,13.999,0z"/>
</g></g><g transform="translate(558,930) scale(2.2142857142857,2.2142857142857)"><g transform="" style="fill: rgb(32, 31, 31);">
    <path d="M0,14V0h13.971H14v3.43C14,9.27,7.732,14,0,14z"/>
</g></g><g transform="translate(682,930) scale(2.2142857142857,2.2142857142857)"><g transform="" style="fill: rgb(32, 31, 31);">
    <path d="M-0.001,0l14,0c0,0-4.381,9.151-0.551,14C13.448,14-0.001,14.24-0.001,0z"/>
</g></g><g transform="translate(868,930) scale(0.062,0.062)"><g transform="" style="fill: rgb(32, 31, 31);">
<path d="M250,0c138.077,0,250,111.93,250,250c0,138.077-111.923,250-250,250C111.93,500,0,388.077,0,250C0,111.93,111.93,0,250,0z"
	/>
</g></g><g transform="translate(961,930) scale(0.31,0.31)"><g transform="" style="fill: rgb(32, 31, 31);">
<rect width="100" height="100"/>
</g></g><g transform="translate(992,930) scale(2.2142857142857,2.2142857142857)"><g transform="" style="fill: rgb(32, 31, 31);">
    <path d="M13.999,13.999H0V0.028v-0.029h3.43C9.269-0.001,13.999,6.267,13.999,13.999z"/>
</g></g><g transform="translate(372,961) scale(0.31,0.31)"><g transform="" style="fill: rgb(32, 31, 31);">
<rect width="100" height="100"/>
</g></g><g transform="translate(403,961) scale(0.31,0.31)"><g transform="" style="fill: rgb(32, 31, 31);">
<rect width="100" height="100"/>
</g></g><g transform="translate(434,961) scale(2.2142857142857,2.2142857142857)"><g transform="" style="fill: rgb(32, 31, 31);">
    <path d="M0,14V0h13.971H14v3.43C14,9.27,7.732,14,0,14z"/>
</g></g><g transform="translate(496,961) scale(0.062,0.062)"><g transform="" style="fill: rgb(32, 31, 31);">
<path d="M250,0c138.077,0,250,111.93,250,250c0,138.077-111.923,250-250,250C111.93,500,0,388.077,0,250C0,111.93,111.93,0,250,0z"
	/>
</g></g><g transform="translate(589,961) scale(2.2142857142857,2.2142857142857)"><g transform="" style="fill: rgb(32, 31, 31);">
    <path d="M13.999,0v14c0,0-9.151-4.381-14-0.551C-0.001,13.449-0.242,0,13.999,0z"/>
</g></g><g transform="translate(620,961) scale(0.31,0.31)"><g transform="" style="fill: rgb(32, 31, 31);">
<rect width="100" height="100"/>
</g></g><g transform="translate(651,961) scale(2.2142857142857,2.2142857142857)"><g transform="" style="fill: rgb(32, 31, 31);">
    <path d="M13.999,13.999H0V0.028v-0.029h3.43C9.269-0.001,13.999,6.267,13.999,13.999z"/>
</g></g><g transform="translate(713,961) scale(2.2142857142857,2.2142857142857)"><g transform="" style="fill: rgb(32, 31, 31);">
    <path d="M14,14H0c0,0,4.38-9.15,0.55-14C0.55,0,14-0.24,14,14z"/>
</g></g><g transform="translate(775,961) scale(2.2142857142857,2.2142857142857)"><g transform="" style="fill: rgb(32, 31, 31);">
    <path d="M13.999,0v14c0,0-9.151-4.381-14-0.551C-0.001,13.449-0.242,0,13.999,0z"/>
</g></g><g transform="translate(806,961) scale(2.2142857142857,2.2142857142857)"><g transform="" style="fill: rgb(32, 31, 31);">
    <path d="M0,14V0c0,0,9.15,4.38,14,0.55C14,0.55,14.24,14,0,14z"/>
</g></g><g transform="translate(899,961) scale(2.2142857142857,2.2142857142857)"><g transform="" style="fill: rgb(32, 31, 31);">
    <path d="M13.999,0v14c0,0-9.151-4.381-14-0.551C-0.001,13.449-0.242,0,13.999,0z"/>
</g></g><g transform="translate(930,961) scale(0.31,0.31)"><g transform="" style="fill: rgb(32, 31, 31);">
<rect width="100" height="100"/>
</g></g><g transform="translate(961,961) scale(0.31,0.31)"><g transform="" style="fill: rgb(32, 31, 31);">
<rect width="100" height="100"/>
</g></g><g transform="translate(992,961) scale(2.2142857142857,2.2142857142857)"><g transform="" style="fill: rgb(32, 31, 31);">
    <path d="M0,14V0h13.971H14v3.43C14,9.27,7.732,14,0,14z"/>
</g></g><g transform="translate(279,992) scale(2.2142857142857,2.2142857142857)"><g transform="" style="fill: rgb(32, 31, 31);">
    <path d="M13.999,0v14c0,0-9.151-4.381-14-0.551C-0.001,13.449-0.242,0,13.999,0z"/>
</g></g><g transform="translate(310,992) scale(0.31,0.31)"><g transform="" style="fill: rgb(32, 31, 31);">
<rect width="100" height="100"/>
</g></g><g transform="translate(341,992) scale(0.31,0.31)"><g transform="" style="fill: rgb(32, 31, 31);">
<rect width="100" height="100"/>
</g></g><g transform="translate(372,992) scale(0.31,0.31)"><g transform="" style="fill: rgb(32, 31, 31);">
<rect width="100" height="100"/>
</g></g><g transform="translate(403,992) scale(2.2142857142857,2.2142857142857)"><g transform="" style="fill: rgb(32, 31, 31);">
    <path d="M0,14V0h13.971H14v3.43C14,9.27,7.732,14,0,14z"/>
</g></g><g transform="translate(558,992) scale(0.062,0.062)"><g transform="" style="fill: rgb(32, 31, 31);">
<path d="M250,0c138.077,0,250,111.93,250,250c0,138.077-111.923,250-250,250C111.93,500,0,388.077,0,250C0,111.93,111.93,0,250,0z"
	/>
</g></g><g transform="translate(620,992) scale(2.2142857142857,2.2142857142857)"><g transform="" style="fill: rgb(32, 31, 31);">
        <path d="M0-0.001h14v13.97v0.029l-3.431,0.001C4.731,13.999,0,7.731,0-0.001z"/>
</g></g><g transform="translate(651,992) scale(2.2142857142857,2.2142857142857)"><g transform="" style="fill: rgb(32, 31, 31);">
    <path d="M0,14V0h13.971H14v3.43C14,9.27,7.732,14,0,14z"/>
</g></g><g transform="translate(713,992) scale(2.2142857142857,2.2142857142857)"><g transform="" style="fill: rgb(32, 31, 31);">
        <path d="M0-0.001h14v13.97v0.029l-3.431,0.001C4.731,13.999,0,7.731,0-0.001z"/>
</g></g><g transform="translate(744,992) scale(2.2142857142857,2.2142857142857)"><g transform="" style="fill: rgb(32, 31, 31);">
    <path d="M0,14V0c0,0,9.15,4.38,14,0.55C14,0.55,14.24,14,0,14z"/>
</g></g><g transform="translate(868,992) scale(0.062,0.062)"><g transform="" style="fill: rgb(32, 31, 31);">
<path d="M250,0c138.077,0,250,111.93,250,250c0,138.077-111.923,250-250,250C111.93,500,0,388.077,0,250C0,111.93,111.93,0,250,0z"
	/>
</g></g><g transform="translate(0,0) scale(2.17, 2.17)"><g transform=" translate(100, 0) scale(-1,1) " style="fill: rgb(32, 31, 31);">
<path d="M38.806,99.939c-6.634,0.002-13.268-0.006-19.901-0.004c-3.317,0.002-6.634,0.004-9.951,0.011
	c-1.592,0.005-3.184,0.009-4.776,0.013c-0.932,0.002-2.048,0.158-2.964-0.094C0.587,99.691,0.4,99.15,0.408,98.549
	c0.02-1.441,0.518-2.924,0.759-4.342c0.543-3.193,0.89-6.416,1.183-9.643c0.593-6.527,1.136-13.072,1.347-19.627
	c0.209-6.504,0.003-13.029-0.67-19.498c-0.331-3.189-0.795-6.367-1.449-9.508c-0.603-2.893-1.315-5.719-1.489-8.682
	c-0.328-5.582,0.97-11.088,3.898-15.863C6.72,6.928,10.834,3.84,15.721,2.064c5.975-2.17,12.286-2.049,18.546-2.029
	c6.599,0.021,13.197-0.022,19.797-0.024c6.597-0.003,13.192,0.034,19.791,0.215c4.941,0.137,9.908,1.019,14.252,3.496
	c4.613,2.629,8.197,6.862,9.906,11.899c1.957,5.777,1.827,12.262,1.836,18.291c0.017,13.041,0.428,26.125-0.021,39.162
	c-0.176,5.041-1.145,10.145-3.738,14.533c-2.748,4.651-7.089,8.107-12.105,10.035c-5.844,2.246-12.051,2.421-18.23,2.314
	c-6.49-0.111-12.98,0.047-19.473,0.014C43.789,99.959,41.297,99.939,38.806,99.939C26.865,99.941,45.362,99.939,38.806,99.939z
	 M41.655,85.625c0-0.07,17.863-0.027,19.555-0.045c3.149-0.023,6.341,0.084,9.437-0.604c2.674-0.592,5.233-1.691,7.478-3.266
	c3.683-2.582,6.093-6.438,6.832-10.869c0.478-2.859,0.321-5.83,0.347-8.719c0.027-3.328,0.033-6.654,0.021-9.982
	c-0.014-3.328-0.043-6.655-0.088-9.982c-0.041-3.158,0.078-6.328-0.053-9.481c-0.205-4.94-1.652-10.068-5.283-13.609
	c-1.521-1.483-3.381-2.592-5.418-3.2c-2.674-0.797-5.596-0.707-8.356-0.857c-6.599-0.365-13.205-0.635-19.815-0.623
	c-3.303,0.006-6.607,0.084-9.906,0.254c-2.948,0.152-6.037,0.182-8.932,0.799c-4.294,0.918-8.128,3.613-10.397,7.381
	c-2.956,4.909-2.423,10.362-1.473,15.77c1.124,6.402,1.383,12.863,1.374,19.349c-0.006,4.813-0.133,9.591-0.639,14.381
	c-0.245,2.316-0.541,4.628-0.845,6.938c-0.152,1.156-0.307,2.312-0.458,3.466c-0.089,0.685-0.248,1.505,0.087,2.151
	c0.657,1.267,3.101,0.783,4.188,0.771c2.527-0.024,5.055-0.037,7.582-0.039C31.811,85.602,36.733,85.625,41.655,85.625
	C41.655,85.607,33.541,85.625,41.655,85.625z"/>
</g></g><g transform="translate(806,0) scale(2.17, 2.17)"><g transform="" style="fill: rgb(32, 31, 31);">
<path d="M38.806,99.939c-6.634,0.002-13.268-0.006-19.901-0.004c-3.317,0.002-6.634,0.004-9.951,0.011
	c-1.592,0.005-3.184,0.009-4.776,0.013c-0.932,0.002-2.048,0.158-2.964-0.094C0.587,99.691,0.4,99.15,0.408,98.549
	c0.02-1.441,0.518-2.924,0.759-4.342c0.543-3.193,0.89-6.416,1.183-9.643c0.593-6.527,1.136-13.072,1.347-19.627
	c0.209-6.504,0.003-13.029-0.67-19.498c-0.331-3.189-0.795-6.367-1.449-9.508c-0.603-2.893-1.315-5.719-1.489-8.682
	c-0.328-5.582,0.97-11.088,3.898-15.863C6.72,6.928,10.834,3.84,15.721,2.064c5.975-2.17,12.286-2.049,18.546-2.029
	c6.599,0.021,13.197-0.022,19.797-0.024c6.597-0.003,13.192,0.034,19.791,0.215c4.941,0.137,9.908,1.019,14.252,3.496
	c4.613,2.629,8.197,6.862,9.906,11.899c1.957,5.777,1.827,12.262,1.836,18.291c0.017,13.041,0.428,26.125-0.021,39.162
	c-0.176,5.041-1.145,10.145-3.738,14.533c-2.748,4.651-7.089,8.107-12.105,10.035c-5.844,2.246-12.051,2.421-18.23,2.314
	c-6.49-0.111-12.98,0.047-19.473,0.014C43.789,99.959,41.297,99.939,38.806,99.939C26.865,99.941,45.362,99.939,38.806,99.939z
	 M41.655,85.625c0-0.07,17.863-0.027,19.555-0.045c3.149-0.023,6.341,0.084,9.437-0.604c2.674-0.592,5.233-1.691,7.478-3.266
	c3.683-2.582,6.093-6.438,6.832-10.869c0.478-2.859,0.321-5.83,0.347-8.719c0.027-3.328,0.033-6.654,0.021-9.982
	c-0.014-3.328-0.043-6.655-0.088-9.982c-0.041-3.158,0.078-6.328-0.053-9.481c-0.205-4.94-1.652-10.068-5.283-13.609
	c-1.521-1.483-3.381-2.592-5.418-3.2c-2.674-0.797-5.596-0.707-8.356-0.857c-6.599-0.365-13.205-0.635-19.815-0.623
	c-3.303,0.006-6.607,0.084-9.906,0.254c-2.948,0.152-6.037,0.182-8.932,0.799c-4.294,0.918-8.128,3.613-10.397,7.381
	c-2.956,4.909-2.423,10.362-1.473,15.77c1.124,6.402,1.383,12.863,1.374,19.349c-0.006,4.813-0.133,9.591-0.639,14.381
	c-0.245,2.316-0.541,4.628-0.845,6.938c-0.152,1.156-0.307,2.312-0.458,3.466c-0.089,0.685-0.248,1.505,0.087,2.151
	c0.657,1.267,3.101,0.783,4.188,0.771c2.527-0.024,5.055-0.037,7.582-0.039C31.811,85.602,36.733,85.625,41.655,85.625
	C41.655,85.607,33.541,85.625,41.655,85.625z"/>
</g></g><g transform="translate(0,806) scale(2.17, 2.17)"><g transform=" translate(100, 0) scale(-1,1)  translate(0,100) scale(1,-1) " style="fill: rgb(32, 31, 31);">
<path d="M38.806,99.939c-6.634,0.002-13.268-0.006-19.901-0.004c-3.317,0.002-6.634,0.004-9.951,0.011
	c-1.592,0.005-3.184,0.009-4.776,0.013c-0.932,0.002-2.048,0.158-2.964-0.094C0.587,99.691,0.4,99.15,0.408,98.549
	c0.02-1.441,0.518-2.924,0.759-4.342c0.543-3.193,0.89-6.416,1.183-9.643c0.593-6.527,1.136-13.072,1.347-19.627
	c0.209-6.504,0.003-13.029-0.67-19.498c-0.331-3.189-0.795-6.367-1.449-9.508c-0.603-2.893-1.315-5.719-1.489-8.682
	c-0.328-5.582,0.97-11.088,3.898-15.863C6.72,6.928,10.834,3.84,15.721,2.064c5.975-2.17,12.286-2.049,18.546-2.029
	c6.599,0.021,13.197-0.022,19.797-0.024c6.597-0.003,13.192,0.034,19.791,0.215c4.941,0.137,9.908,1.019,14.252,3.496
	c4.613,2.629,8.197,6.862,9.906,11.899c1.957,5.777,1.827,12.262,1.836,18.291c0.017,13.041,0.428,26.125-0.021,39.162
	c-0.176,5.041-1.145,10.145-3.738,14.533c-2.748,4.651-7.089,8.107-12.105,10.035c-5.844,2.246-12.051,2.421-18.23,2.314
	c-6.49-0.111-12.98,0.047-19.473,0.014C43.789,99.959,41.297,99.939,38.806,99.939C26.865,99.941,45.362,99.939,38.806,99.939z
	 M41.655,85.625c0-0.07,17.863-0.027,19.555-0.045c3.149-0.023,6.341,0.084,9.437-0.604c2.674-0.592,5.233-1.691,7.478-3.266
	c3.683-2.582,6.093-6.438,6.832-10.869c0.478-2.859,0.321-5.83,0.347-8.719c0.027-3.328,0.033-6.654,0.021-9.982
	c-0.014-3.328-0.043-6.655-0.088-9.982c-0.041-3.158,0.078-6.328-0.053-9.481c-0.205-4.94-1.652-10.068-5.283-13.609
	c-1.521-1.483-3.381-2.592-5.418-3.2c-2.674-0.797-5.596-0.707-8.356-0.857c-6.599-0.365-13.205-0.635-19.815-0.623
	c-3.303,0.006-6.607,0.084-9.906,0.254c-2.948,0.152-6.037,0.182-8.932,0.799c-4.294,0.918-8.128,3.613-10.397,7.381
	c-2.956,4.909-2.423,10.362-1.473,15.77c1.124,6.402,1.383,12.863,1.374,19.349c-0.006,4.813-0.133,9.591-0.639,14.381
	c-0.245,2.316-0.541,4.628-0.845,6.938c-0.152,1.156-0.307,2.312-0.458,3.466c-0.089,0.685-0.248,1.505,0.087,2.151
	c0.657,1.267,3.101,0.783,4.188,0.771c2.527-0.024,5.055-0.037,7.582-0.039C31.811,85.602,36.733,85.625,41.655,85.625
	C41.655,85.607,33.541,85.625,41.655,85.625z"/>
</g></g><g transform="translate(62,62) scale(0.31, 0.31)"><g transform="" style="fill: rgb(32, 31, 31);">
<g>

	<polygon points="13,0 0,87 87,100 100,13"/>
	<polygon points="100,17 183,0 200,83 117,100"/>
	<polygon points="200,10 290,0 300,90 200,100"/>

	<polygon points="5,125 75,105 195,175 25,195"/>
	<polygon points="65,63 62,232 228,238 236,68"/>
	<polygon points="215,105 205,185 285,195 295,115"/>

	<polygon points="0,215 85,200 100,285 15,300"/>
	<polygon points="100,212 188,200 200,288 112,300"/>
	<polygon points="222,200 200,278 278,300 300,222"/>


</g>
</g></g><g transform="translate(868,62) scale(0.31, 0.31)"><g transform=" translate(300, 0) scale(-1,1) " style="fill: rgb(32, 31, 31);">
<g>

	<polygon points="13,0 0,87 87,100 100,13"/>
	<polygon points="100,17 183,0 200,83 117,100"/>
	<polygon points="200,10 290,0 300,90 200,100"/>

	<polygon points="5,125 75,105 195,175 25,195"/>
	<polygon points="65,63 62,232 228,238 236,68"/>
	<polygon points="215,105 205,185 285,195 295,115"/>

	<polygon points="0,215 85,200 100,285 15,300"/>
	<polygon points="100,212 188,200 200,288 112,300"/>
	<polygon points="222,200 200,278 278,300 300,222"/>


</g>
</g></g><g transform="translate(62,868) scale(0.31, 0.31)"><g transform=" translate(0,300) scale(1,-1) " style="fill: rgb(32, 31, 31);">
<g>

	<polygon points="13,0 0,87 87,100 100,13"/>
	<polygon points="100,17 183,0 200,83 117,100"/>
	<polygon points="200,10 290,0 300,90 200,100"/>

	<polygon points="5,125 75,105 195,175 25,195"/>
	<polygon points="65,63 62,232 228,238 236,68"/>
	<polygon points="215,105 205,185 285,195 295,115"/>

	<polygon points="0,215 85,200 100,285 15,300"/>
	<polygon points="100,212 188,200 200,288 112,300"/>
	<polygon points="222,200 200,278 278,300 300,222"/>


</g>
</g></g><g transform="translate(341,341) scale(0.13317885107347,0.13317885107347)" width="341" height="341"><svg
   version="1.1"
   id="svg2"
   xml:space="preserve"
   width="2560.4666"
   height="2560.4666"
   viewBox="0 0 2560.4666 2560.4666"
   sodipodi:docname="gh_logo.eps.svg"
   inkscape:version="1.1.2 (0a00cf5339, 2022-02-04)"
   xmlns:inkscape="http://www.inkscape.org/namespaces/inkscape"
   xmlns:sodipodi="http://sodipodi.sourceforge.net/DTD/sodipodi-0.dtd"
   xmlns="http://www.w3.org/2000/svg"
   xmlns:svg="http://www.w3.org/2000/svg"><defs
     id="defs6" /><sodipodi:namedview
     id="namedview4"
     pagecolor="#ffffff"
     bordercolor="#666666"
     borderopacity="1.0"
     inkscape:pageshadow="2"
     inkscape:pageopacity="0.0"
     inkscape:pagecheckerboard="0"
     showgrid="false"
     fit-margin-top="0"
     fit-margin-left="0"
     fit-margin-right="0"
     fit-margin-bottom="0"
     inkscape:zoom="0.18958608"
     inkscape:cx="-147.69017"
     inkscape:cy="1250.0918"
     inkscape:window-width="1920"
     inkscape:window-height="1043"
     inkscape:window-x="1920"
     inkscape:window-y="0"
     inkscape:window-maximized="1"
     inkscape:current-layer="g8" /><g
     id="g8"
     inkscape:groupmode="layer"
     inkscape:label="ink_ext_XXXXXX"
     transform="matrix(1.3333333,0,0,-1.3333333,-2560.4666,2560.4666)"><path
       d="M 3840.7,1920.35 H 1920.35 V 0 H 3840.7 v 1920.35"
       style="fill:#040606;fill-opacity:1;fill-rule:nonzero;stroke:none;stroke-width:0.1"
       id="path12" /><path
       d="m 2880.86,1750.23 c -344.52,0 -623.03,-280.56 -623.03,-627.66 0,-277.46 178.45,-512.32 426.01,-595.44 30.95,-6.25 42.29,13.5 42.29,30.12 0,14.55 -1.02,64.43 -1.02,116.4 -173.31,-37.42 -209.4,74.82 -209.4,74.82 -27.86,72.74 -69.13,91.44 -69.13,91.44 -56.72,38.45 4.14,38.45 4.14,38.45 62.92,-4.16 95.94,-64.43 95.94,-64.43 55.69,-95.6 145.43,-68.59 181.54,-51.96 5.15,40.53 21.66,68.59 39.2,84.17 -138.23,14.56 -283.67,68.59 -283.67,309.69 0,68.58 24.74,124.7 63.95,168.34 -6.19,15.58 -27.86,80.02 6.2,166.27 0,0 52.6,16.63 171.22,-64.43 50.78,13.74 103.15,20.73 155.76,20.79 52.61,0 106.24,-7.28 155.76,-20.79 118.62,81.06 171.23,64.43 171.23,64.43 34.05,-86.25 12.37,-150.69 6.19,-166.27 40.23,-43.64 63.95,-99.76 63.95,-168.34 0,-241.1 -145.43,-294.09 -284.7,-309.69 22.7,-19.74 42.29,-57.14 42.29,-116.38 0,-84.17 -1.02,-151.72 -1.02,-172.5 0,-16.63 11.35,-36.38 42.29,-30.14 247.56,83.14 426.02,317.99 426.02,595.45 1.02,347.1 -278.52,627.66 -622.01,627.66"
       style="fill:#ffffff;fill-opacity:1;fill-rule:evenodd;stroke:none;stroke-width:0.1"
       id="path32" /><path
       d="m 2623.25,299.14 h -70.28 c -1.81,0 -3.28,-1.47 -3.28,-3.28 V 261.5 c 0,-1.82 1.47,-3.29 3.28,-3.29 h 27.42 v -42.69 c 0,0 -6.16,-2.1 -23.18,-2.1 -20.08,0 -48.13,7.33 -48.13,69.02 0,61.69 29.21,69.81 56.63,69.81 23.74,0 33.97,-4.18 40.47,-6.19 2.05,-0.63 3.94,1.41 3.94,3.22 l 7.84,33.2 c 0,0.85 -0.29,1.87 -1.25,2.57 -2.65,1.88 -18.77,10.9 -59.5,10.9 -46.91,0 -95.04,-19.96 -95.04,-115.92 0,-95.96 55.1,-110.26 101.53,-110.26 38.45,0 61.77,16.43 61.77,16.43 0.96,0.53 1.07,1.87 1.07,2.49 v 107.17 c 0,1.81 -1.47,3.28 -3.29,3.28"
       style="fill:#ffffff;fill-opacity:1;fill-rule:nonzero;stroke:none;stroke-width:0.1"
       id="path34" /><path
       d="m 2985.45,384.45 c 0,1.83 -1.45,3.31 -3.26,3.31 h -39.57 c -1.81,0 -3.28,-1.48 -3.28,-3.31 l 0.01,-76.47 h -61.68 v 76.47 c 0,1.83 -1.46,3.31 -3.27,3.31 h -39.57 c -1.8,0 -3.27,-1.48 -3.27,-3.31 V 177.38 c 0,-1.83 1.47,-3.31 3.27,-3.31 h 39.57 c 1.81,0 3.27,1.48 3.27,3.31 v 88.57 h 61.68 c 0,0 -0.1,-88.56 -0.1,-88.57 0,-1.83 1.46,-3.31 3.27,-3.31 h 39.67 c 1.81,0 3.26,1.48 3.26,3.31 v 207.07"
       style="fill:#ffffff;fill-opacity:1;fill-rule:nonzero;stroke:none;stroke-width:0.1"
       id="path36" /><path
       d="m 2697.93,357.28 c 0,14.25 -11.42,25.76 -25.52,25.76 -14.08,0 -25.51,-11.51 -25.51,-25.76 0,-14.23 11.43,-25.78 25.51,-25.78 14.1,0 25.52,11.55 25.52,25.78"
       style="fill:#ffffff;fill-opacity:1;fill-rule:nonzero;stroke:none;stroke-width:0.1"
       id="path38" /><path
       d="m 2695.1,221.06 c 0,5.31 0,95.59 0,95.59 0,1.81 -1.46,3.3 -3.27,3.3 h -39.45 c -1.81,0 -3.43,-1.87 -3.43,-3.69 0,0 0,-115.02 0,-136.94 0,-4.03 2.51,-5.22 5.75,-5.22 0,0 16.84,0 35.54,0 3.9,0 4.86,1.91 4.86,5.28 0,7.34 0,36.1 0,41.68"
       style="fill:#ffffff;fill-opacity:1;fill-rule:nonzero;stroke:none;stroke-width:0.1"
       id="path40" /><path
       d="m 3135.85,319.63 h -39.27 c -1.8,0 -3.27,-1.48 -3.27,-3.31 V 214.79 c 0,0 -9.98,-7.3 -24.14,-7.3 -14.15,0 -17.91,6.42 -17.91,20.29 0,13.88 0,88.54 0,88.54 0,1.83 -1.46,3.31 -3.27,3.31 h -39.85 c -1.8,0 -3.27,-1.48 -3.27,-3.31 0,0 0,-54.07 0,-95.25 0,-41.18 22.95,-51.25 54.52,-51.25 25.9,0 46.79,14.31 46.79,14.31 0,0 0.99,-7.54 1.44,-8.44 0.45,-0.89 1.62,-1.79 2.89,-1.79 l 25.35,0.11 c 1.8,0 3.28,1.49 3.28,3.31 l -0.02,139 c 0,1.83 -1.46,3.31 -3.27,3.31"
       style="fill:#ffffff;fill-opacity:1;fill-rule:nonzero;stroke:none;stroke-width:0.1"
       id="path42" /><path
       d="m 3227.69,207.62 c -13.62,0.41 -22.86,6.59 -22.86,6.59 v 65.58 c 0,0 9.11,5.58 20.29,6.58 14.15,1.27 27.77,-3 27.77,-36.74 0,-35.57 -6.15,-42.59 -25.2,-42.01 z m 15.49,116.67 c -22.31,0 -37.48,-9.96 -37.48,-9.96 v 70.12 c 0,1.83 -1.46,3.31 -3.26,3.31 h -39.69 c -1.8,0 -3.27,-1.48 -3.27,-3.31 V 177.38 c 0,-1.83 1.47,-3.31 3.28,-3.31 0,0 27.52,0 27.53,0 1.24,0 2.18,0.64 2.87,1.76 0.69,1.11 1.68,9.54 1.68,9.54 0,0 16.22,-15.37 46.94,-15.37 36.07,0 56.75,18.29 56.75,82.12 0,63.82 -33.03,72.17 -55.35,72.17"
       style="fill:#ffffff;fill-opacity:1;fill-rule:nonzero;stroke:none;stroke-width:0.1"
       id="path44" /><path
       d="m 2808.83,319.96 h -29.68 c 0,0 -0.05,39.21 -0.05,39.22 0,1.48 -0.76,2.23 -2.48,2.23 h -40.45 c -1.57,0 -2.41,-0.7 -2.41,-2.21 v -40.52 c 0,0 -20.28,-4.9 -21.65,-5.29 -1.36,-0.4 -2.37,-1.66 -2.37,-3.16 v -25.46 c 0,-1.83 1.47,-3.31 3.27,-3.31 h 20.75 c 0,0 0,-26.64 0,-61.27 0,-45.5 31.91,-49.97 53.45,-49.97 9.84,0 21.62,3.16 23.56,3.88 1.18,0.43 1.86,1.65 1.86,2.97 l 0.03,28.01 c 0,1.83 -1.54,3.31 -3.28,3.31 -1.73,0 -6.15,-0.71 -10.71,-0.71 -14.58,0 -19.52,6.78 -19.52,15.56 0,8.77 0,58.22 0,58.22 h 29.68 c 1.81,0 3.28,1.48 3.28,3.31 v 31.89 c 0,1.83 -1.47,3.3 -3.28,3.3"
       style="fill:#ffffff;fill-opacity:1;fill-rule:nonzero;stroke:none;stroke-width:0.1"
       id="path46" /></g></svg>
</g></g></svg>